<svg width="20" height="20" viewBox="0 0 20 20" fill="none" xmlns="http://www.w3.org/2000/svg">
<path d="M12.6158 6.40587H13.2222L14.9504 4.6777L15.0353 3.94399C14.0453 3.07018 12.8488 2.46317 11.559 2.18031C10.2692 1.89745 8.92856 1.94807 7.66374 2.32739C6.39892 2.70672 5.25168 3.40222 4.33039 4.34821C3.4091 5.29419 2.74418 6.45942 2.39844 7.73383C2.59096 7.65492 2.80423 7.64212 3.00481 7.69744L6.46114 7.12745C6.46114 7.12745 6.63699 6.83639 6.72795 6.85458C7.46853 6.04123 8.492 5.54172 9.58883 5.45831C10.6857 5.37489 11.7729 5.71387 12.628 6.40587H12.6158Z" fill="#EA4335"/>
<path d="M17.412 7.73397C17.0148 6.27117 16.1992 4.95614 15.0654 3.9502L12.6399 6.37569C13.1454 6.78873 13.5505 7.31117 13.8246 7.9036C14.0988 8.49602 14.2348 9.14297 14.2225 9.79564V10.2262C14.506 10.2262 14.7867 10.282 15.0486 10.3905C15.3105 10.499 15.5485 10.658 15.7489 10.8584C15.9494 11.0589 16.1084 11.2969 16.2169 11.5588C16.3254 11.8207 16.3812 12.1014 16.3812 12.3849C16.3812 12.6683 16.3254 12.9491 16.2169 13.211C16.1084 13.4729 15.9494 13.7108 15.7489 13.9113C15.5485 14.1117 15.3105 14.2707 15.0486 14.3792C14.7867 14.4877 14.506 14.5436 14.2225 14.5436H9.90513L9.47461 14.9801V17.5694L9.90513 17.9999H14.2225C15.4281 18.0093 16.6048 17.6304 17.5783 16.9192C18.5519 16.208 19.2707 15.2024 19.6284 14.051C19.9861 12.8997 19.9638 11.6637 19.5646 10.5261C19.1655 9.38841 18.4107 8.40944 17.412 7.73397Z" fill="#4285F4"/>
<path d="M5.58104 17.9756H9.89842V14.5192H5.58104C5.27344 14.5192 4.96946 14.453 4.68967 14.3252L4.08329 14.5132L2.343 16.2413L2.19141 16.8477C3.16732 17.5846 4.35815 17.9809 5.58104 17.9756Z" fill="#34A853"/>
<path d="M5.58148 6.76371C4.41168 6.7707 3.27327 7.14287 2.32525 7.82826C1.37723 8.51365 0.666955 9.47801 0.293619 10.5867C-0.0797161 11.6953 -0.0974641 12.8929 0.242854 14.0121C0.583172 15.1314 1.26456 16.1163 2.19185 16.8295L4.69618 14.3252C4.37793 14.1814 4.09932 13.9626 3.88424 13.6874C3.66917 13.4123 3.52406 13.0891 3.46135 12.7455C3.39865 12.402 3.42024 12.0484 3.52425 11.715C3.62826 11.3816 3.8116 11.0785 4.05854 10.8315C4.30548 10.5846 4.60864 10.4013 4.94201 10.2972C5.27538 10.1932 5.62901 10.1716 5.97255 10.2343C6.3161 10.297 6.6393 10.4422 6.91444 10.6572C7.18957 10.8723 7.40842 11.1509 7.5522 11.4692L10.0565 8.96485C9.53089 8.27768 8.85342 7.72142 8.07709 7.33956C7.30077 6.95771 6.44663 6.76062 5.58148 6.76371Z" fill="#FBBC05"/>
</svg>
