<svg width="16" height="20" viewBox="0 0 16 20" fill="none" xmlns="http://www.w3.org/2000/svg">
<g clip-path="url(#clip0_1247_1629)">
<path fill-rule="evenodd" clip-rule="evenodd" d="M10.3096 0H7.04128V4.93333C6.55335 4.80837 6.14959 4.76666 5.61958 4.76666C2.20408 4.76666 0 6.90835 0 10.2083C0 13.6333 2.0779 15.4167 6.06966 15.4208C7.40309 15.4208 8.63548 15.2962 10.3096 14.9796V0ZM6.05377 7.46615C6.4576 7.46615 6.77303 7.5078 7.15581 7.63282V12.8291C6.68892 12.8916 6.39447 12.9119 6.03279 12.9119C4.35872 12.9119 3.44592 11.962 3.44592 10.2415C3.44592 8.47446 4.40074 7.46615 6.05377 7.46615Z" fill="#2BA977"/>
<path d="M15.6545 12.6689V5.16889H12.3904V11.5522C12.3904 14.3689 12.2431 15.4397 11.7763 16.3643C11.3304 17.2684 10.6322 17.8609 9.18945 18.5314L12.2222 19.9605C13.6649 19.2435 14.3631 18.5943 14.8931 17.5647C15.461 16.4939 15.6545 15.2518 15.6545 12.6689Z" fill="#2BA977"/>
<path d="M15.3293 0H12.061V3.32084H15.3293V0Z" fill="#2BA977"/>
</g>
<defs>
<clipPath id="clip0_1247_1629">
<rect width="16" height="20" fill="white"/>
</clipPath>
</defs>
</svg>
