<svg width="24" height="20" viewBox="0 0 24 20" fill="none" xmlns="http://www.w3.org/2000/svg">
<path d="M23.3811 7.93081C23.3154 7.87588 22.7241 7.42542 21.4538 7.42542C21.1253 7.42542 20.7858 7.45839 20.4573 7.51332C20.2164 5.83236 18.8257 5.01934 18.7709 4.97539L18.4314 4.77764L18.2124 5.09625C17.9387 5.52473 17.7306 6.00814 17.6101 6.50254C17.3802 7.45838 17.5225 8.35929 18.0044 9.12836C17.424 9.45796 16.4822 9.53487 16.2851 9.54585L0.735125 9.54585C0.32995 9.54585 0.0014293 9.87545 0.00142927 10.282C-0.0204722 11.6443 0.209492 13.0067 0.680372 14.2921C1.21696 15.6984 2.01636 16.7421 3.04572 17.3794C4.20649 18.0935 6.10096 18.5 8.23635 18.5C9.20001 18.5 10.1637 18.4121 11.1164 18.2363C12.4414 17.9946 13.7117 17.5332 14.8834 16.863C15.8471 16.3027 16.7122 15.5885 17.4459 14.7535C18.6833 13.3582 19.417 11.7981 19.9536 10.4138H20.1726C21.5195 10.4138 22.3518 9.87545 22.8117 9.41401C23.1183 9.12836 23.3483 8.77679 23.5126 8.38127L23.6111 8.09561L23.3811 7.93081Z" fill="#0091E2"/>
<path d="M2.19007 9.10411H4.27064C4.36919 9.10411 4.4568 9.02708 4.4568 8.91703L4.4568 7.04627C4.4568 6.94723 4.38014 6.85919 4.27064 6.85919L2.19007 6.85919C2.09152 6.85919 2.00392 6.93622 2.00392 7.04627L2.00392 8.91703C2.01487 9.02708 2.09152 9.10411 2.19007 9.10411ZM5.05907 9.10411L7.13963 9.10411C7.23819 9.10411 7.32579 9.02708 7.32579 8.91703L7.32579 7.04627C7.32579 6.94723 7.24914 6.85919 7.13963 6.85919H5.05907C4.96051 6.85919 4.87291 6.93622 4.87291 7.04627L4.87291 8.91703C4.88386 9.02708 4.96051 9.10411 5.05907 9.10411ZM7.98281 9.10411H10.0634C10.1619 9.10411 10.2495 9.02708 10.2495 8.91704V7.04627C10.2495 6.94723 10.1729 6.85919 10.0634 6.85919L7.98281 6.85919C7.88426 6.85919 7.79666 6.93622 7.79666 7.04627V8.91703C7.79666 9.02708 7.87331 9.10411 7.98281 9.10411ZM10.8628 9.10411H12.9433C13.0419 9.10411 13.1295 9.02708 13.1295 8.91704V7.04627C13.1295 6.94723 13.0528 6.8592 12.9433 6.8592L10.8628 6.85919C10.7642 6.85919 10.6766 6.93622 10.6766 7.04627V8.91704C10.6766 9.02708 10.7642 9.10411 10.8628 9.10411ZM5.05907 6.43002H7.13963C7.23819 6.43002 7.32579 6.34198 7.32579 6.24294V4.37218C7.32579 4.27314 7.24914 4.1851 7.13963 4.1851L5.05907 4.1851C4.96051 4.1851 4.87291 4.26213 4.87291 4.37218L4.87291 6.24294C4.88386 6.34198 4.96051 6.43002 5.05907 6.43002ZM7.98281 6.43002L10.0634 6.43002C10.1619 6.43002 10.2495 6.34198 10.2495 6.24294V4.37218C10.2495 4.27314 10.1729 4.1851 10.0634 4.1851H7.98281C7.88426 4.1851 7.79666 4.26213 7.79666 4.37218V6.24294C7.79666 6.34198 7.87331 6.43002 7.98281 6.43002ZM10.8628 6.43002H12.9433C13.0419 6.43002 13.1295 6.34198 13.1295 6.24294V4.37218C13.1295 4.27314 13.0419 4.1851 12.9433 4.1851L10.8628 4.1851C10.7642 4.1851 10.6766 4.26213 10.6766 4.37218V6.24294C10.6766 6.34198 10.7642 6.43002 10.8628 6.43002ZM10.8628 3.74492L12.9433 3.74492C13.0419 3.74492 13.1295 3.66789 13.1295 3.55784L13.1295 1.68708C13.1295 1.58804 13.0419 1.5 12.9433 1.5L10.8628 1.5C10.7642 1.5 10.6766 1.57703 10.6766 1.68708V3.55784C10.6766 3.65688 10.7642 3.74492 10.8628 3.74492ZM13.7646 9.10411H15.8452C15.9437 9.10411 16.0313 9.02708 16.0313 8.91704V7.04627C16.0313 6.94723 15.9547 6.8592 15.8452 6.8592H13.7646C13.666 6.8592 13.5784 6.93622 13.5784 7.04627V8.91704C13.5894 9.02708 13.666 9.10411 13.7646 9.10411Z" fill="#0091E2"/>
</svg>
