<svg width="18" height="20" viewBox="0 0 18 20" fill="none" xmlns="http://www.w3.org/2000/svg">
<g clip-path="url(#clip0_1247_1609)">
<path d="M16.2 0H1.8C0.806 0 0 0.806 0 1.8V18.2C0 19.194 0.806 20 1.8 20H16.2C17.194 20 18 19.194 18 18.2V1.8C18 0.806 17.194 0 16.2 0ZM4.5 17V13L6.75 15L4.5 17ZM11.5 17V11.0275C11.4902 10.5608 11.2655 10 10.25 10C8.2165 10 5.9355 11.0227 5.91275 11.033L4.5 11.673V3H6.5V8.67775C7.4985 8.35275 8.89425 8 10.25 8C11.4862 8 12.2262 8.486 12.6292 8.89375C13.4895 9.76375 13.5013 10.872 13.5001 11V17H11.5ZM12 6.25H10C10.786 5.21875 11.2795 4.1335 11.5 3H13.5C13.365 4.136 12.9045 5.225 12 6.25Z" fill="#430098"/>
</g>
<defs>
<clipPath id="clip0_1247_1609">
<rect width="18" height="20" fill="white"/>
</clipPath>
</defs>
</svg>
