<svg width="19" height="22" viewBox="0 0 19 22" fill="none" xmlns="http://www.w3.org/2000/svg">
<g clip-path="url(#clip0_1247_1558)">
<path d="M6.79596 6.23182L6.85655 7.62543L5.88709 9.44318L4.37229 12.4122L4.06934 14.8964L5.15999 18.4107L7.64424 19.8044H11.4009L14.9152 17.1383L16.4906 12.9575L12.8551 8.53431L11.8251 6.05005L6.79596 6.23182Z" fill="white"/>
<path d="M15.3998 9.68558C14.4303 8.29198 13.6426 7.44369 13.2185 5.68653C12.7943 3.92938 13.3396 4.41411 12.9761 2.89932C12.7943 2.11163 12.4914 1.5663 12.1884 1.14216C11.8248 0.718018 11.4007 0.475652 11.1583 0.41506C10.613 0.112102 9.34059 -0.372632 7.7652 0.475652C6.12923 1.32393 6.311 3.14169 6.61396 6.83778C6.61396 7.08014 6.55337 7.3831 6.43219 7.62547C6.18982 8.17079 5.76568 8.65553 5.40213 9.07967C4.97799 9.68558 4.55384 10.2915 4.25089 10.958C3.52379 12.3516 2.85728 14.1088 3.03905 14.7753C3.34201 14.7147 7.15929 20.5315 7.15929 20.6527C7.40165 20.5921 8.43171 20.5921 9.34058 20.5921C10.613 20.5315 11.3401 20.4709 12.3702 20.7133C12.3702 20.5315 12.3096 20.3497 12.3096 20.1679C12.3096 19.8044 12.3702 19.5014 12.4308 19.0773C12.4914 18.7743 12.5519 18.4714 12.6125 18.1078C12.0066 18.6532 10.916 19.2591 9.88591 19.4408C8.97704 19.6226 7.46224 19.3197 6.73514 18.4108C6.79574 18.4108 6.91692 18.4108 6.97751 18.3502C7.15929 18.2896 7.34106 18.229 7.40165 18.1078C7.58343 17.8049 7.46224 17.5019 7.34106 17.3201C7.21988 17.1384 6.311 16.4719 5.88686 16.1083C5.46272 15.7448 5.22035 15.563 4.97799 15.3206C4.97799 15.3206 4.61444 14.9571 4.49325 14.8359C4.37207 14.7147 4.31148 14.5935 4.25089 14.5329C4.1297 14.23 4.06911 13.8664 4.1297 13.3817C4.19029 12.7152 4.43266 12.1698 4.73562 11.5639C4.8568 11.3216 5.15976 10.8368 5.15976 10.8368C5.15976 10.8368 4.1297 13.3817 4.67503 14.1694C4.67503 14.1694 4.73562 13.3817 4.97799 12.594C5.15976 12.0487 5.46272 11.261 5.82627 10.8368C6.18982 10.4127 7.09869 8.8373 7.15929 7.86783C7.15929 7.44369 7.21988 7.01955 7.21988 6.71659C6.97751 6.47423 11.2189 5.86831 11.4613 6.53482C11.5219 6.77718 12.3702 8.95848 12.8549 10.1097C13.0973 10.6551 13.4002 11.1398 13.582 11.7457C13.7638 12.4122 13.885 13.3211 13.885 14.23C13.885 14.4117 13.885 14.7147 13.8244 15.0177C13.9456 15.0177 16.3086 12.4728 13.5214 10.3521C13.5214 10.3521 15.218 11.1398 15.2786 12.7152C15.3392 13.9876 14.7938 15.0177 14.6727 15.1994C14.7332 15.1994 15.9451 15.7448 16.0057 15.7448C16.248 15.7448 16.7328 15.563 16.7328 15.563C16.7934 15.3812 16.9751 14.8965 16.9751 14.7147C17.3993 13.3211 16.3692 11.0792 15.3998 9.68558Z" fill="#263238"/>
<path d="M7.70465 5.68645C8.13968 5.68645 8.49234 5.1439 8.49234 4.47462C8.49234 3.80534 8.13968 3.26279 7.70465 3.26279C7.26962 3.26279 6.91695 3.80534 6.91695 4.47462C6.91695 5.1439 7.26962 5.68645 7.70465 5.68645Z" fill="white"/>
<path d="M10.4313 5.80769C11.0002 5.80769 11.4614 5.18375 11.4614 4.41409C11.4614 3.64442 11.0002 3.02048 10.4313 3.02048C9.86245 3.02048 9.40128 3.64442 9.40128 4.41409C9.40128 5.18375 9.86245 5.80769 10.4313 5.80769Z" fill="white"/>
<path d="M8.14477 4.55749C8.09442 4.1591 7.8652 3.85995 7.63281 3.88932C7.40041 3.9187 7.25284 4.26547 7.30319 4.66387C7.35355 5.06226 7.58277 5.36141 7.81516 5.33204C8.04756 5.30266 8.19513 4.95589 8.14477 4.55749Z" fill="#263238"/>
<path d="M10.3707 5.44404C10.7053 5.44404 10.9766 5.09137 10.9766 4.65634C10.9766 4.22131 10.7053 3.86865 10.3707 3.86865C10.0361 3.86865 9.76479 4.22131 9.76479 4.65634C9.76479 5.09137 10.0361 5.44404 10.3707 5.44404Z" fill="#263238"/>
<path d="M18.4292 17.9868C18.1869 17.8656 17.7627 17.6839 17.3992 17.1385C17.2174 16.8356 17.278 15.9873 16.975 15.6238C16.7933 15.3814 16.5509 15.5026 16.4903 15.5026C15.945 15.6238 14.6726 16.472 13.8243 15.5026C13.7031 15.3814 13.5213 15.1996 13.2184 15.1996C12.9154 15.1996 12.7942 15.3208 12.673 15.5632C12.5519 15.8055 12.5519 15.9873 12.5519 16.5932C12.5519 17.078 12.5519 17.6233 12.4913 18.0474C12.3701 19.0775 12.1883 19.6834 12.1883 20.2893C12.1883 20.9558 12.3701 21.38 12.6124 21.5617C12.7942 21.7435 13.0972 21.8647 13.7637 21.8647C14.4302 21.8647 14.8543 21.6223 15.2785 21.1982C15.5814 20.8952 15.8238 20.774 16.6721 20.1681C17.3386 19.744 18.3687 19.1987 18.5504 19.0169C18.6716 18.8957 18.8534 18.8351 18.8534 18.4716C18.8534 18.1686 18.611 18.0474 18.4292 17.9868Z" fill="#FFBF00"/>
<path d="M6.25031 18.1687C5.6444 17.1992 5.58381 17.0174 5.15966 16.4115C4.79611 15.8056 4.00842 14.6544 3.52369 14.6544C3.16014 14.6544 2.97836 14.8361 2.736 15.0785C2.49363 15.3209 2.25126 15.8662 1.82712 16.1691C1.46357 16.4721 0.433515 16.4115 0.191148 16.7751C-0.0512182 17.1386 0.433515 17.6839 0.433515 18.5928C0.433515 18.9564 0.130557 19.1987 0.0699652 19.4411C0.00937356 19.7441 -0.0512181 19.9258 0.0699652 20.1682C0.312332 20.5317 0.61529 20.6529 2.67541 21.0771C3.76606 21.3194 4.79611 21.9254 5.46262 21.9859C6.12913 22.0465 7.28037 21.9859 7.28037 20.35C7.34096 19.3805 6.79564 19.1381 6.25031 18.1687Z" fill="#FFBF00"/>
<path d="M7.40186 7.20141C7.03831 6.95904 6.73535 6.71668 6.73535 6.35313C6.73535 5.98958 6.97772 5.86839 7.34127 5.56543C7.40186 5.50484 8.06837 4.89893 8.73488 4.89893C9.40138 4.89893 10.1891 5.32307 10.492 5.44425C11.0374 5.56543 11.5827 5.68662 11.5221 6.11076C11.4615 6.71668 11.4009 6.83786 10.795 7.14082C10.3709 7.262 9.58316 7.92851 9.03783 7.92851C8.79547 7.92851 8.43192 7.92851 8.18955 7.86792C8.00778 7.80733 7.70482 7.50437 7.40186 7.20141Z" fill="#FFBF00"/>
<path d="M7.2798 6.71647C7.40098 6.83765 7.58276 6.95883 7.76453 7.01943C7.88572 7.08002 8.06749 7.14061 8.06749 7.14061C8.30986 7.14061 8.49163 7.14061 8.61282 7.14061C8.91578 7.14061 9.33992 7.01943 9.76406 6.77706C10.1882 6.59528 10.2488 6.4741 10.5517 6.35292C10.8547 6.17114 11.1577 5.98937 11.0365 5.92878C10.9153 5.86818 10.7941 5.92878 10.37 6.17114C10.0064 6.41351 9.70347 6.53469 9.33992 6.71647C9.15814 6.77706 8.91577 6.89824 8.734 6.89824C8.55222 6.89824 8.37045 6.89824 8.18868 6.89824C8.0069 6.89824 7.88572 6.83765 7.70394 6.77706C7.58276 6.71647 7.52217 6.65587 7.46158 6.65587C7.34039 6.59528 7.09803 6.35292 6.97684 6.29232C6.97684 6.29232 6.85566 6.29232 6.91625 6.35292C7.09802 6.53469 7.15862 6.59528 7.2798 6.71647Z" fill="#263238"/>
<path d="M9.0975 5.38355C9.1581 5.50473 9.27928 5.50473 9.33987 5.56533C9.40046 5.62592 9.46105 5.62592 9.46105 5.62592C9.52165 5.56533 9.46105 5.44414 9.40046 5.44414C9.40046 5.32296 9.0975 5.32296 9.0975 5.38355Z" fill="#263238"/>
<path d="M8.12813 5.50468C8.12813 5.56527 8.24931 5.62586 8.24931 5.56527C8.3099 5.50468 8.37049 5.44409 8.43109 5.44409C8.55227 5.3835 8.49168 5.32291 8.3099 5.32291C8.18872 5.3835 8.18872 5.44409 8.12813 5.50468Z" fill="#263238"/>
<path d="M14.006 16.2295C14.006 16.2901 14.006 16.3507 14.006 16.4113C14.1272 16.6536 14.4302 16.7142 14.6725 16.7142C15.0361 16.7142 15.3996 16.4719 15.5814 16.2295C15.5814 16.1689 15.642 16.1083 15.7026 16.0477C15.8238 15.8659 15.8844 15.7448 15.945 15.6842C15.945 15.6842 15.8844 15.6236 15.8844 15.563C15.8238 15.4418 15.642 15.3206 15.3996 15.26C15.2179 15.1994 14.9149 15.1388 14.7937 15.1388C14.2484 15.0782 13.9454 15.26 13.7637 15.4418C13.7637 15.4418 13.8243 15.4418 13.8243 15.5024C13.9454 15.6236 14.006 15.7448 14.006 15.9265C14.0666 16.0477 14.006 16.1083 14.006 16.2295Z" fill="#263238"/>
</g>
<defs>
<clipPath id="clip0_1247_1558">
<rect width="19" height="22" fill="white"/>
</clipPath>
</defs>
</svg>
