<svg width="20" height="20" viewBox="0 0 20 20" fill="none" xmlns="http://www.w3.org/2000/svg">
<g clip-path="url(#clip0_1247_1579)">
<path fill-rule="evenodd" clip-rule="evenodd" d="M10.3907 19.5431C10.7547 19.8441 11.1815 19.9725 11.6421 19.9962C11.8326 20.0062 12.0286 19.9968 12.2161 19.9627C12.5135 19.9087 12.81 19.8409 13.0992 19.7537C13.6882 19.576 14.1972 19.2689 14.5773 18.7729C14.7938 18.4902 14.9715 18.1845 15.0856 17.8465C15.1799 17.5676 15.2684 17.2859 15.3389 17.0006C15.3946 16.7757 15.4222 16.5436 15.4559 16.3138C15.4785 16.1619 15.4921 16.0084 15.5061 15.855C15.5288 15.6062 15.5526 15.3578 15.5691 15.1084C15.5806 14.9349 15.5802 14.7607 15.5869 14.587C15.5892 14.534 15.5977 14.4814 15.6028 14.4288C15.607 14.3798 15.6318 14.363 15.6818 14.3638C15.8573 14.3664 16.0332 14.3709 16.2084 14.363C16.4049 14.3542 16.6027 14.3457 16.796 14.3134C17.0712 14.2673 17.3442 14.209 17.6142 14.1387C17.9326 14.0553 18.2249 13.906 18.5064 13.7362C18.8339 13.5381 19.1328 13.306 19.3747 13.0068C19.5858 12.7464 19.6857 12.4446 19.6347 12.1153C19.5608 11.637 19.1588 11.3236 18.6915 11.3023C18.5221 11.2946 18.3502 11.3124 18.1817 11.3338C17.9775 11.3598 17.7765 11.4057 17.5729 11.4359C17.4324 11.4571 17.29 11.4664 17.1499 11.481L17.146 11.4628C17.408 10.9678 17.681 10.4785 17.9288 9.97679C18.1191 9.59169 18.2816 9.19299 18.4496 8.79692C18.7278 8.14128 18.9498 7.46553 19.1338 6.77841C19.3099 6.12074 19.4607 5.45596 19.5084 4.77351C19.5275 4.50113 19.5407 4.22754 19.5388 3.95477C19.5376 3.73703 19.5141 3.51909 19.4923 3.30217C19.4676 3.05356 19.3924 2.81796 19.2884 2.59128C19.1515 2.29231 18.9389 2.04715 18.7152 1.81439C18.5363 1.62793 18.3393 1.45813 18.1441 1.28833C17.8656 1.04622 17.5524 0.852658 17.2274 0.68103C16.8591 0.485363 16.4688 0.334007 16.0648 0.230124C15.8187 0.168058 15.5709 0.112454 15.3219 0.0633705C15.2333 0.0454967 15.1439 0 15.0548 0H13.3755C13.3147 0 13.2546 0.0398097 13.1935 0.0465123C12.7916 0.0903809 12.3947 0.172332 12.0083 0.291261C11.8641 0.335742 11.7325 0.309744 11.5954 0.296948C11.4902 0.287198 11.3868 0.260185 11.2816 0.254904C10.8813 0.234999 10.4805 0.206157 10.08 0.210423C9.69652 0.214485 9.3169 0.277855 8.94582 0.383067C8.63526 0.471623 8.33121 0.579068 8.05254 0.742572C7.93352 0.812442 7.83887 0.79924 7.71558 0.763899C7.30153 0.642601 6.88387 0.533954 6.4632 0.43811C6.20098 0.379411 5.93105 0.349756 5.66314 0.322133C5.40604 0.295428 5.14793 0.279369 4.8895 0.273996C4.63723 0.268512 4.38334 0.268715 4.1321 0.291058C3.73217 0.326602 3.33996 0.407846 2.95852 0.539056C2.53805 0.68281 2.14516 0.897183 1.79673 1.17296C1.44129 1.45427 1.15612 1.79733 0.927214 2.18953C0.685716 2.60327 0.519774 3.04625 0.417 3.51117C0.213616 4.42899 0.229538 5.45968 0.388159 6.38905C0.435686 6.66975 0.478543 6.94943 0.536226 7.2281C0.616861 7.61746 0.69384 8.00642 0.783209 8.39395C0.848204 8.67607 0.918684 8.95657 0.996069 9.23544C1.11387 9.66157 1.22883 10.0883 1.36228 10.5093C1.48638 10.9007 1.62774 11.2865 1.7689 11.6724C1.96233 12.206 2.19942 12.7228 2.47776 13.2174C2.72048 13.6462 2.99732 14.0477 3.36901 14.3778C3.61416 14.5955 3.88654 14.7627 4.20359 14.8464C4.45127 14.9121 4.71085 14.9194 4.9618 14.8675C5.2527 14.8084 5.52448 14.6782 5.75292 14.4887C5.77973 14.467 5.80877 14.4501 5.84066 14.4903C5.96131 14.6431 6.12258 14.745 6.29137 14.833C6.74674 15.0706 7.24294 15.1419 7.74686 15.1707C7.86913 15.1776 7.99221 15.1602 8.1151 15.1569C8.35497 15.1502 8.58774 15.1035 8.81664 15.0373C8.93688 15.0026 9.05408 14.9583 9.17635 14.9173C9.18265 15.0474 9.19077 15.1726 9.19483 15.2979L9.21169 15.9809C9.21494 16.0849 9.219 16.1889 9.22855 16.2925C9.25333 16.5594 9.2775 16.8263 9.30939 17.0924C9.33132 17.2758 9.35448 17.4604 9.39754 17.6395C9.4841 18.0006 9.6025 18.3532 9.75136 18.6933C9.89385 19.0234 10.1131 19.3147 10.3907 19.5431ZM9.66138 16.1373C9.64696 15.8166 9.63619 15.4958 9.62908 15.1748C9.62055 14.7804 9.61771 14.3857 9.61222 13.9913L9.61121 13.9762C9.41074 14.0967 9.21311 14.2283 9.00411 14.337C8.75896 14.4643 8.49288 14.538 8.21726 14.559C8.00135 14.5752 7.7822 14.59 7.56731 14.573C7.21471 14.5443 6.86211 14.4893 6.54647 14.3154C6.41851 14.245 6.28487 14.159 6.19651 14.0467C5.98507 13.7768 6.08643 13.4358 6.40531 13.2717C6.62569 13.1579 6.86617 13.1106 7.10503 13.0553C7.31294 13.0082 7.51869 12.952 7.72167 12.8868C7.92194 12.8212 8.04827 12.6587 8.17319 12.4992L8.37102 12.2449L8.13317 12.2201C7.89716 12.1982 7.67191 12.133 7.45661 12.0376C7.27259 11.9561 7.26975 11.9472 7.13448 12.0938C6.90902 12.3386 6.68967 12.5894 6.46848 12.8384C6.30579 13.0216 6.14431 13.2058 5.98203 13.3897C5.82198 13.5714 5.67168 13.7634 5.49883 13.9324C5.2425 14.1834 4.93337 14.3343 4.56452 14.3173C4.3279 14.3063 4.11138 14.2234 3.91639 14.088C3.51444 13.8081 3.24369 13.4161 2.99691 13.0048C2.68107 12.4775 2.43836 11.9159 2.23098 11.3391C2.08738 10.9401 1.94297 10.541 1.81785 10.1364C1.68157 9.6967 1.56193 9.25189 1.44433 8.80667C1.35537 8.47093 1.27656 8.13235 1.20141 7.79315C1.1149 7.4076 1.03486 7.02062 0.961337 6.63237C0.912387 6.37016 0.884155 6.10408 0.844548 5.84024C0.79113 5.48419 0.781381 5.12529 0.800879 4.76802C0.818144 4.44609 0.86425 4.12518 0.910153 3.80548C0.973727 3.36311 1.11956 2.94571 1.32917 2.55148C1.45847 2.31124 1.61695 2.08788 1.801 1.88649C2.10363 1.55156 2.46984 1.30966 2.87728 1.12787C3.16184 1.00093 3.46264 0.924763 3.76914 0.864845C4.22411 0.776289 4.68314 0.779945 5.14217 0.789288C5.34284 0.793553 5.5429 0.82991 5.74337 0.850018C6.17519 0.892874 6.59827 0.983868 7.01606 1.09578C7.32073 1.17743 7.6191 1.28346 7.92092 1.37526C7.95098 1.3844 7.99546 1.38359 8.02045 1.36754C8.42971 1.10025 8.87676 0.92395 9.35265 0.823004C9.53321 0.784819 9.71967 0.767961 9.9043 0.756181C10.1285 0.742166 10.355 0.728761 10.5788 0.741963C10.8479 0.757399 11.1163 0.797006 11.3838 0.833566C11.5137 0.85144 11.6405 0.896327 11.7705 0.908514C11.833 0.914404 11.899 0.86911 11.9649 0.853674C12.3008 0.775883 12.6353 0.68956 12.9743 0.628424C13.2266 0.582927 13.4845 0.561398 13.7409 0.546774C14.0272 0.530322 14.3153 0.518338 14.6012 0.53215C14.9628 0.549617 15.3217 0.601004 15.6759 0.683467C16.115 0.785632 16.5359 0.933903 16.9362 1.13986C17.2354 1.29402 17.5195 1.47235 17.7756 1.69171C17.9434 1.83571 18.1152 1.97769 18.2666 2.13815C18.4534 2.33598 18.6439 2.5336 18.7613 2.78688C18.8497 2.97801 18.9127 3.17584 18.9301 3.38484C18.9517 3.64502 18.9779 3.90602 18.9756 4.16661C18.9734 4.41562 18.9393 4.66443 18.9153 4.91304C18.8603 5.47931 18.7374 6.0334 18.5877 6.58017C18.4628 7.03181 18.3212 7.47869 18.1634 7.91989C18.0194 8.32672 17.853 8.72604 17.6851 9.12393C17.5612 9.41853 17.4268 9.70856 17.2821 9.99345C17.0071 10.5321 16.7211 11.0653 16.3902 11.573C16.3332 11.6606 16.2789 11.7504 16.2233 11.8399C16.3677 11.9372 16.5312 11.9715 16.6957 11.9894C16.8523 12.0063 17.0119 12.0166 17.1683 12.0049C17.4188 11.9862 17.6684 11.9504 17.9174 11.9157C18.164 11.8812 18.4055 11.8111 18.659 11.8296C18.9116 11.8481 19.0928 12.0402 19.0756 12.277C19.0646 12.4269 18.9957 12.5555 18.8962 12.6654C18.426 13.1841 17.8358 13.4985 17.1606 13.6535C16.9041 13.7124 16.6396 13.7427 16.377 13.7672C16.1528 13.787 15.9274 13.7923 15.7025 13.7831C15.5376 13.777 15.3741 13.7392 15.2055 13.7148C15.1884 13.869 15.1724 14.0297 15.1529 14.1897L15.0743 14.8037C15.0505 14.9983 15.032 15.1937 15.0075 15.3883C14.9835 15.5772 14.9536 15.765 14.9284 15.9537C14.9051 16.1294 14.8878 16.3061 14.8614 16.4816C14.8214 16.7505 14.783 17.0201 14.7304 17.2869C14.6674 17.6058 14.5712 17.9146 14.4134 18.2024C14.2212 18.5535 13.9488 18.821 13.6019 19.0191C13.2445 19.2232 12.8535 19.3294 12.4576 19.4184C12.1769 19.4816 11.8883 19.4917 11.6041 19.4659C11.1116 19.4214 10.6911 19.2108 10.3733 18.8288C10.07 18.4642 9.86469 18.0466 9.79137 17.5735C9.75685 17.3485 9.73002 17.1223 9.71094 16.8953C9.68894 16.6431 9.67242 16.3903 9.66138 16.1373ZM10.2151 12.8969C10.2181 13.0655 10.2006 13.2341 10.2014 13.4027C10.2049 14.1873 10.2106 14.9721 10.2173 15.7569C10.2185 15.8851 10.2248 16.0136 10.2339 16.1416C10.2532 16.4097 10.2723 16.678 10.2983 16.9453C10.317 17.1352 10.3424 17.3245 10.3723 17.513C10.4149 17.7797 10.5364 18.0173 10.6741 18.2446C10.7927 18.44 10.9473 18.6057 11.1506 18.7203C11.4963 18.9147 11.8682 18.9309 12.2431 18.8594C12.4964 18.8113 12.7454 18.7335 12.9912 18.6533C13.2331 18.5757 13.4539 18.4436 13.6367 18.2672C13.8091 18.1002 13.9314 17.8965 14.0138 17.6716C14.1737 17.2358 14.2239 16.7765 14.2899 16.3212C14.3146 16.1505 14.3362 15.9795 14.3587 15.8087C14.3845 15.6143 14.4105 15.4202 14.4353 15.2258C14.454 15.0808 14.4706 14.9359 14.4883 14.7911C14.5137 14.5831 14.5403 14.3754 14.5645 14.1674C14.5829 14.0065 14.5984 13.845 14.615 13.6838C14.6362 13.4776 14.6587 13.2721 14.6772 13.0655C14.691 12.9091 14.6853 12.7497 14.7131 12.5959C14.7641 12.3142 14.8974 12.0745 15.1472 11.9193C15.2516 11.8548 15.3698 11.8121 15.4856 11.7573L15.4657 11.727C15.3586 11.5881 15.2489 11.4514 15.1439 11.3108C14.979 11.0902 14.8604 10.8443 14.7412 10.5971C14.6282 10.3627 14.4901 10.1409 14.3713 9.90916C14.1639 9.50497 13.9527 9.10179 13.7616 8.69009C13.5213 8.17216 13.332 7.63635 13.2725 7.06276C13.2471 6.82025 13.2406 6.57774 13.2899 6.33746C13.3686 5.95358 13.5688 5.65338 13.906 5.44743C14.2188 5.2565 14.5671 5.19476 14.924 5.17546C15.1454 5.16348 15.3682 5.17323 15.5979 5.17323L15.5904 5.13443C15.4474 4.83545 15.3139 4.5314 15.1573 4.23973C14.9368 3.82782 14.654 3.45654 14.3396 3.11186C14.1076 2.85557 13.8527 2.62102 13.578 2.41113C13.3062 2.20538 13.0198 2.02156 12.7141 1.87146C12.351 1.69083 11.9675 1.55445 11.5718 1.46524C11.189 1.38034 10.8041 1.32834 10.4113 1.32408C10.0765 1.32042 9.74384 1.33586 9.41764 1.41121C8.9253 1.52516 8.47501 1.72786 8.08361 2.05609C7.86683 2.2378 7.67317 2.44545 7.50698 2.67436C7.31057 2.94348 7.15255 3.23474 7.01728 3.53961C6.83164 3.95822 6.70429 4.39349 6.61695 4.84114C6.57349 5.06456 6.53936 5.28941 6.50463 5.51425C6.49245 5.59326 6.49163 5.67349 6.48432 5.76387L6.633 5.68649L6.77802 5.62149C7.26894 5.39706 7.77732 5.25264 8.32369 5.2691C8.55605 5.276 8.77785 5.32211 8.98461 5.42387C9.38068 5.61926 9.61222 5.95134 9.71297 6.37138C9.78243 6.66142 9.83016 6.95715 9.87647 7.25227C9.91263 7.48259 9.94979 7.71536 9.95386 7.94772C9.95975 8.28732 9.94269 8.62773 9.9242 8.96713C9.9084 9.25574 9.84867 9.54025 9.74709 9.81085C9.56348 10.3016 9.35874 10.7844 9.16762 11.2722C9.10445 11.4335 9.0559 11.6003 8.99639 11.7776L9.23769 11.7778C9.26694 11.7784 9.29679 11.7792 9.32503 11.7859C9.54459 11.8377 9.73531 11.9372 9.8915 12.1062C10.1003 12.3304 10.2096 12.5929 10.2151 12.8969ZM6.02143 10.5703C5.89698 10.2774 5.8219 9.96597 5.79923 9.64857C5.77811 9.34918 5.81365 9.05142 5.84452 8.75325C5.87418 8.46463 5.89936 8.17459 5.90789 7.88496C5.92231 7.40826 5.89022 6.93277 5.86747 6.45648C5.85387 6.17294 5.88677 5.88594 5.91196 5.60179C5.9347 5.34587 5.96314 5.08934 6.01168 4.83708C6.09272 4.4138 6.20058 3.99661 6.35392 3.59221C6.49915 3.20874 6.66651 2.83563 6.90212 2.49948C7.064 2.26875 7.2472 2.05365 7.4233 1.8282L7.3709 1.80951C6.79752 1.62753 6.21459 1.48494 5.6148 1.42299C5.33146 1.39354 5.04691 1.37648 4.76276 1.35942C4.67542 1.35434 4.58686 1.36612 4.49932 1.37445C4.2826 1.39537 4.06304 1.40349 3.84977 1.44412C3.48681 1.51317 3.13848 1.62935 2.81614 1.81845C2.53088 1.98631 2.28079 2.20777 2.07966 2.47064C1.85482 2.76129 1.7031 3.08992 1.59443 3.44008C1.46607 3.85341 1.40473 4.27893 1.38828 4.7081C1.37385 5.08447 1.36675 5.46286 1.43174 5.83781C1.47988 6.11668 1.51217 6.3988 1.56539 6.67686C1.63693 7.05598 1.71724 7.43339 1.80628 7.80879C1.93485 8.34581 2.06362 8.88325 2.21615 9.41377C2.36199 9.92175 2.5263 10.4253 2.70504 10.9229C2.85087 11.3289 3.01966 11.7274 3.19738 12.1204C3.31315 12.3765 3.4533 12.6231 3.60035 12.8628C3.75654 13.1175 3.93447 13.3592 4.17536 13.544C4.47982 13.7772 4.71523 13.8136 5.02477 13.5574C5.1572 13.448 5.26911 13.3123 5.38448 13.1833C5.56748 12.9786 5.74419 12.7677 5.92658 12.562C6.15873 12.3002 6.39373 12.041 6.62711 11.78C6.67646 11.725 6.72419 11.6681 6.77213 11.6124L6.69231 11.5428C6.40455 11.2679 6.17622 10.9369 6.02143 10.5703ZM14.8244 2.77023C15.0153 2.99197 15.1964 3.22198 15.3672 3.45958C15.6944 3.9185 15.9578 4.41976 16.1502 4.9496C16.2355 5.1842 16.3037 5.42102 16.2732 5.67755C16.2521 5.8573 16.2535 6.03949 16.2379 6.22026C16.2247 6.37056 16.2007 6.52005 16.1814 6.66995C16.1522 6.89581 16.1099 7.12126 16.0973 7.34814C16.0852 7.56425 16.098 7.78239 16.1116 7.9987C16.1252 8.21867 16.1548 8.43762 16.1749 8.65698C16.1977 8.9062 16.2286 9.1548 16.2355 9.40443C16.2411 9.60916 16.2229 9.81491 16.2052 10.0196C16.1825 10.265 16.1229 10.5054 16.0285 10.733C15.9629 10.8942 15.8847 11.0502 15.811 11.2115L15.8406 11.2428L15.8857 11.2777L15.9314 11.1965C16.315 10.593 16.6557 9.96336 16.9512 9.31221C17.1407 8.89192 17.3204 8.4673 17.4903 8.03871C17.7551 7.37247 17.9691 6.68711 18.1303 5.98851C18.2034 5.67491 18.2595 5.35643 18.309 5.03796C18.3478 4.78894 18.3799 4.53708 18.3872 4.28584C18.3947 4.01936 18.3801 3.75084 18.3555 3.48517C18.337 3.2845 18.2875 3.08261 18.162 2.91911C17.9597 2.65648 17.7415 2.40544 17.4732 2.20659C17.2472 2.03943 17.0217 1.8674 16.7794 1.72685C16.3949 1.50363 15.9787 1.35536 15.5439 1.25421C15.1192 1.15529 14.6894 1.11264 14.2568 1.1035C14.0016 1.09802 13.7453 1.12544 13.4908 1.14961C13.2601 1.17114 13.0308 1.2081 12.7986 1.23857C13.0478 1.37871 13.2938 1.50342 13.5254 1.65027C14.0128 1.959 14.4499 2.33049 14.8244 2.77023ZM8.49146 11.4152C8.64887 10.9115 8.86356 10.4301 9.07134 9.94633C9.24013 9.55371 9.33213 9.14038 9.3628 8.71548C9.37804 8.50607 9.37398 8.29402 9.36362 8.08401C9.35352 7.85034 9.3321 7.6173 9.29943 7.38571C9.25577 7.09039 9.20621 6.79486 9.13634 6.50502C9.06058 6.19142 8.86965 5.97287 8.54224 5.89224C8.34299 5.84329 8.14475 5.84532 7.94306 5.87721C7.45092 5.95459 7.00042 6.13597 6.5808 6.40164C6.4963 6.45506 6.44959 6.49832 6.46442 6.61917C6.49529 6.8759 6.50199 7.1367 6.50077 7.39566C6.49915 7.76228 6.48351 8.12889 6.4697 8.4953C6.46523 8.61453 6.44796 8.73355 6.43496 8.85237C6.41547 9.03436 6.37748 9.21614 6.3787 9.39793C6.37992 9.5852 6.39901 9.77673 6.44451 9.95811C6.58892 10.5333 6.8944 11.0037 7.39547 11.3358C7.70359 11.5401 8.04441 11.6429 8.41875 11.6626C8.44353 11.5767 8.46648 11.4957 8.49146 11.4152ZM7.90325 6.48187C7.83724 6.34355 7.87502 6.22879 8.02776 6.17558C8.06513 6.16278 8.10332 6.14856 8.14191 6.14491C8.19532 6.13963 8.24915 6.14349 8.30297 6.14349C8.49694 6.14471 8.6834 6.17172 8.84325 6.2948C8.94602 6.37402 8.97364 6.47862 8.90702 6.58667C8.81258 6.73962 8.66898 6.81639 8.49227 6.83102C8.21421 6.85397 8.01902 6.72438 7.90325 6.48187ZM15.6164 6.43129L15.6795 5.87782C15.6887 5.80389 15.6499 5.78357 15.5877 5.78175C15.3921 5.77647 15.1968 5.76936 15.0012 5.76611C14.781 5.76204 14.5663 5.79739 14.3624 5.88107C14.1361 5.9743 13.9639 6.12338 13.8934 6.36975C13.8418 6.55129 13.8255 6.74104 13.8455 6.92871C13.8729 7.2191 13.9387 7.50457 14.041 7.77771C14.1779 8.14189 14.3209 8.50587 14.4922 8.85481C14.7239 9.32704 14.9859 9.78445 15.2321 10.2496C15.2977 10.3737 15.3533 10.5035 15.4218 10.6483C15.56 10.3602 15.6355 10.046 15.6432 9.72656C15.6499 9.46231 15.629 9.19746 15.6135 8.93321C15.604 8.77153 15.581 8.61067 15.5654 8.4494C15.5437 8.22476 15.5104 7.99992 15.5051 7.77467C15.5 7.54556 15.5162 7.31523 15.5357 7.08633C15.554 6.86737 15.5902 6.64984 15.6164 6.43129ZM15.1758 6.25378C15.1031 6.45425 14.9479 6.56758 14.7465 6.60069C14.5588 6.63176 14.3943 6.5625 14.272 6.41261C14.1849 6.30597 14.2182 6.17984 14.3488 6.10754C14.4987 6.02467 14.6634 6.00375 14.8578 5.99115C14.9108 6.0007 14.99 6.00903 15.0655 6.03035C15.175 6.06123 15.2156 6.1441 15.1758 6.25378ZM9.36727 12.4289C9.26003 12.3412 9.11785 12.3361 9.01589 12.4324C8.88915 12.5522 8.77764 12.6891 8.66614 12.824C8.53757 12.98 8.41651 13.1421 8.25077 13.2629C8.00928 13.4386 7.72716 13.5113 7.44402 13.5802C7.21897 13.635 6.99271 13.686 6.76705 13.7384L6.76421 13.7676C6.83123 13.7985 6.89603 13.8373 6.9661 13.8595C7.31037 13.9683 7.66074 14.0228 8.02471 13.9919C8.28713 13.9693 8.53736 13.9121 8.77439 13.7997C9.10079 13.6452 9.35204 13.4 9.56551 13.1153C9.60126 13.0677 9.61751 12.9975 9.62157 12.9361C9.63599 12.7196 9.52611 12.5585 9.36727 12.4289ZM15.6525 12.3351C15.4837 12.3918 15.3464 12.4781 15.3056 12.6607C15.2778 12.7842 15.2676 12.9119 15.2569 13.0385C15.2548 13.0608 15.2827 13.1019 15.3038 13.1075C15.4338 13.1419 15.5646 13.1823 15.6974 13.1943C15.8609 13.2091 16.0271 13.2044 16.1916 13.1963C16.3691 13.1874 16.5478 13.1758 16.7229 13.1465C17.135 13.0771 17.5341 12.9646 17.8884 12.7306C18.0163 12.6463 18.1427 12.5602 18.2698 12.4744L18.2593 12.4564C18.1238 12.4765 17.9887 12.5011 17.8526 12.5155C17.5756 12.5451 17.2983 12.5764 17.0203 12.5925C16.886 12.6002 16.7499 12.5744 16.6147 12.5634C16.3876 12.5449 16.1658 12.4946 15.9739 12.3731C15.8632 12.3032 15.7705 12.2955 15.6525 12.3351Z" fill="#32668F"/>
</g>
<defs>
<clipPath id="clip0_1247_1579">
<rect width="20" height="20" fill="white"/>
</clipPath>
</defs>
</svg>
