<svg width="20" height="20" viewBox="0 0 20 20" fill="none" xmlns="http://www.w3.org/2000/svg">
<g clip-path="url(#clip0_1247_1585)">
<path fill-rule="evenodd" clip-rule="evenodd" d="M2.17391 5.21739H10V4.34783H5.21739V2.17391C5.21739 2.17391 5.21739 0 10 0C14.7826 0 14.7826 2.17391 14.7826 2.17391C14.7826 2.17391 14.8186 6.04521 14.8006 7.37043C14.7826 8.69565 13.913 9.56522 12.6058 9.56522H7.3913C5.65217 9.56522 4.34783 10.8696 4.34783 12.6087V14.7826H2.17391C2.17391 14.7826 0 14.7826 0 10C0 5.21739 2.17391 5.21739 2.17391 5.21739ZM8.26061 2.17401C8.26061 2.65426 7.8713 3.04357 7.39105 3.04357C6.9108 3.04357 6.52148 2.65426 6.52148 2.17401C6.52148 1.69376 6.9108 1.30444 7.39105 1.30444C7.8713 1.30444 8.26061 1.69376 8.26061 2.17401Z" fill="#387EB8"/>
<path fill-rule="evenodd" clip-rule="evenodd" d="M17.8265 14.7825H10.0004V15.6521H14.783V17.826C14.783 17.826 14.783 19.9999 10.0004 19.9999C5.21777 19.9999 5.21777 17.826 5.21777 17.826V12.6086C5.21777 11.3042 6.08734 10.4347 7.39169 10.4347H12.6091C14.3482 10.4347 15.6526 9.13033 15.6526 7.3912V5.21729H17.8265C17.8265 5.21729 20.0004 5.21729 20.0004 9.99989C20.0004 14.7825 17.8265 14.7825 17.8265 14.7825ZM13.4784 17.8261C13.4784 18.3064 13.0891 18.6957 12.6088 18.6957C12.1286 18.6957 11.7393 18.3064 11.7393 17.8261C11.7393 17.3459 12.1286 16.9565 12.6088 16.9565C13.0891 16.9565 13.4784 17.3459 13.4784 17.8261Z" fill="#FFC331"/>
</g>
<defs>
<clipPath id="clip0_1247_1585">
<rect width="20" height="20" fill="white"/>
</clipPath>
</defs>
</svg>
