<svg width="22" height="20" viewBox="0 0 22 20" fill="none" xmlns="http://www.w3.org/2000/svg">
<g clip-path="url(#clip0_1247_1624)">
<path d="M0.917673 8.00694C2.07684 8.56791 8.54885 11.202 9.56312 11.6898C10.5774 12.1776 11.3019 12.1776 12.6059 11.5191C13.8858 10.8362 19.9715 8.32401 21.1306 7.71426C21.7344 7.39719 22 7.1533 22 6.93379V4.71431C22 4.4948 21.7102 4.29968 21.1306 4.08017L12.7991 0.811933C11.64 0.372916 11.1811 0.397306 9.82876 0.885103C8.45225 1.3729 2.02854 3.93383 0.893524 4.37285C0.33809 4.59236 0.0241494 4.81187 0.0241494 5.03138H0V7.25085C0 7.49475 0.33809 7.73865 0.917673 8.00694ZM11.4468 8.32401L7.89682 6.83623L12.9923 6.05575L11.4468 8.32401ZM19.1504 4.78748L16.1317 5.98258L15.8178 6.10453L12.8233 4.90943L16.1559 3.56799L19.1504 4.78748ZM10.3359 2.59239L9.85291 1.66558L11.3743 2.27532L12.8233 1.78753L12.4369 2.73873L13.91 3.2997L12.0022 3.49482L11.5675 4.51919L10.8913 3.39726L8.69374 3.20214L10.3359 2.59239ZM6.54446 3.88505C8.04171 3.88505 9.27333 4.37285 9.27333 4.95821C9.27333 5.54356 8.06586 6.03136 6.54446 6.03136C5.0472 6.03136 3.81559 5.54356 3.81559 4.95821C3.81559 4.37285 5.0472 3.88505 6.54446 3.88505ZM0.917673 11.8118C2.07684 12.3727 8.54885 15.0068 9.56312 15.4946C10.5774 15.9824 11.3019 15.9824 12.6059 15.3239C13.8858 14.641 19.9715 12.1288 21.1306 11.5191C21.7344 11.202 22 10.9581 22 10.7386V8.51913C22 8.73864 21.7102 8.95814 21.1548 9.27521C19.9956 9.88496 13.91 12.4215 12.6301 13.08C11.3502 13.7629 10.6257 13.7629 9.61142 13.2508C8.59715 12.763 2.10099 10.1289 0.941822 9.56789C0.362239 9.2996 0.0241494 9.0557 0.0241494 8.83619V11.0801C9.17624e-08 11.2996 0.33809 11.5191 0.917673 11.8118ZM0.917673 15.4702C2.07684 16.0312 8.54885 18.6653 9.56312 19.1531C10.5774 19.6409 11.3019 19.6409 12.6059 18.9824C13.8858 18.2995 19.9715 15.7873 21.1306 15.1776C21.7344 14.8605 22 14.6166 22 14.3971V12.1776C22 12.3971 21.7102 12.6166 21.1548 12.9337C19.9956 13.5434 13.91 16.08 12.6301 16.7385C11.3502 17.4214 10.6257 17.4214 9.61142 16.9092C8.59715 16.4214 2.10099 13.7873 0.941822 13.2264C0.362239 12.9581 0.0241494 12.7142 0.0241494 12.4947V14.7385C9.17624e-08 14.9337 0.33809 15.1776 0.917673 15.4702Z" fill="#D82C20"/>
</g>
<defs>
<clipPath id="clip0_1247_1624">
<rect width="22" height="20" fill="white"/>
</clipPath>
</defs>
</svg>
