<svg width="1239" height="592" viewBox="0 0 1239 592" fill="none" xmlns="http://www.w3.org/2000/svg">
<rect x="2" y="2" width="1235" height="588" stroke="black" stroke-width="4"/>
<path d="M191 161L226 173.45L220.663 219.612L191 236L161.337 219.612L156 173.45L191 161ZM191 169.288L169.119 218.225H177.278L181.678 207.275H200.247L204.65 218.225H212.805L191 169.288ZM197.39 200.525H184.61L191 185.188L197.39 200.525Z" fill="black"/>
<path d="M161.464 260L165.728 248.8H167.696L171.976 260H169.744L168.856 257.632H164.576L163.704 260H161.464ZM165.248 255.736H168.168L167.048 252.736C167.011 252.645 166.971 252.544 166.928 252.432C166.886 252.32 166.846 252.208 166.808 252.096C166.771 251.979 166.739 251.877 166.712 251.792C166.686 251.877 166.654 251.979 166.616 252.096C166.579 252.208 166.539 252.32 166.496 252.432C166.454 252.544 166.414 252.645 166.376 252.736L165.248 255.736ZM173.701 260V251.824H175.701V252.608C175.962 252.283 176.274 252.04 176.637 251.88C177.005 251.715 177.424 251.632 177.893 251.632C178.805 251.632 179.509 251.915 180.005 252.48C180.501 253.04 180.749 253.848 180.749 254.904V260H178.757V255.52C178.757 254.832 178.637 254.331 178.397 254.016C178.162 253.696 177.794 253.536 177.293 253.536C176.749 253.536 176.346 253.696 176.085 254.016C175.829 254.331 175.701 254.821 175.701 255.488V260H173.701ZM186.136 263.408L185.032 261.736C185.811 261.677 186.413 261.589 186.84 261.472C187.272 261.355 187.573 261.187 187.744 260.968C187.915 260.749 188 260.464 188 260.112V259.52C187.584 259.968 186.997 260.192 186.24 260.192C185.531 260.192 184.92 260.021 184.408 259.68C183.896 259.333 183.501 258.84 183.224 258.2C182.952 257.555 182.816 256.789 182.816 255.904C182.816 255.04 182.957 254.288 183.24 253.648C183.528 253.008 183.928 252.512 184.44 252.16C184.957 251.808 185.563 251.632 186.256 251.632C186.619 251.632 186.949 251.688 187.248 251.8C187.552 251.912 187.803 252.075 188 252.288V251.824H189.992V259.264C189.992 259.989 189.925 260.603 189.792 261.104C189.659 261.605 189.44 262.016 189.136 262.336C188.837 262.656 188.443 262.899 187.952 263.064C187.461 263.235 186.856 263.349 186.136 263.408ZM186.568 258.28C186.851 258.28 187.115 258.216 187.36 258.088C187.611 257.955 187.824 257.776 188 257.552V254.256C187.851 254.048 187.645 253.877 187.384 253.744C187.123 253.605 186.859 253.536 186.592 253.536C186.016 253.536 185.576 253.739 185.272 254.144C184.973 254.544 184.824 255.131 184.824 255.904C184.824 256.405 184.891 256.835 185.024 257.192C185.163 257.544 185.363 257.813 185.624 258C185.885 258.187 186.2 258.28 186.568 258.28ZM195.274 260.192C194.362 260.192 193.656 259.909 193.154 259.344C192.653 258.773 192.402 257.968 192.402 256.928V251.824H194.402V256.304C194.402 256.992 194.52 257.493 194.754 257.808C194.989 258.123 195.36 258.28 195.866 258.28C196.41 258.28 196.81 258.123 197.066 257.808C197.328 257.488 197.458 256.997 197.458 256.336V251.824H199.45V260H197.458V259.232C197.208 259.552 196.898 259.792 196.53 259.952C196.168 260.112 195.749 260.192 195.274 260.192ZM202.031 260V249.352L204.031 248.448V260H202.031ZM209.023 260.192C208.133 260.192 207.426 259.952 206.903 259.472C206.386 258.987 206.127 258.331 206.127 257.504C206.127 256.971 206.261 256.504 206.527 256.104C206.799 255.699 207.175 255.387 207.655 255.168C208.141 254.944 208.706 254.832 209.351 254.832C209.709 254.832 210.053 254.867 210.383 254.936C210.719 255 211.013 255.093 211.263 255.216V254.704C211.263 254.245 211.133 253.901 210.871 253.672C210.615 253.437 210.237 253.32 209.735 253.32C209.335 253.32 208.925 253.392 208.503 253.536C208.082 253.68 207.655 253.893 207.223 254.176L206.623 252.6C207.093 252.291 207.615 252.053 208.191 251.888C208.767 251.717 209.349 251.632 209.935 251.632C211.034 251.632 211.855 251.893 212.399 252.416C212.943 252.933 213.215 253.707 213.215 254.736V260H211.263V259.344C210.986 259.621 210.655 259.832 210.271 259.976C209.893 260.12 209.477 260.192 209.023 260.192ZM209.487 258.504C209.818 258.504 210.135 258.44 210.439 258.312C210.749 258.179 211.023 257.992 211.263 257.752V256.784C211.034 256.672 210.778 256.587 210.495 256.528C210.218 256.464 209.941 256.432 209.663 256.432C209.167 256.432 208.775 256.528 208.487 256.72C208.205 256.907 208.063 257.168 208.063 257.504C208.063 257.819 208.189 258.064 208.439 258.24C208.69 258.416 209.039 258.504 209.487 258.504ZM215.607 260V251.824H217.607V252.704C217.757 252.389 217.991 252.133 218.311 251.936C218.631 251.733 218.967 251.632 219.319 251.632C219.901 251.632 220.391 251.832 220.791 252.232L220.511 254.064C220.293 253.883 220.079 253.755 219.871 253.68C219.663 253.605 219.434 253.568 219.183 253.568C218.853 253.568 218.57 253.645 218.335 253.8C218.101 253.955 217.919 254.179 217.791 254.472C217.669 254.765 217.607 255.117 217.607 255.528V260H215.607Z" fill="black"/>
<path d="M456.432 166.969C455.886 164.104 453.667 161.784 450.833 161.171C450.697 161.136 450.56 161.136 450.389 161.102C450.355 161.102 450.321 161.034 450.287 161H387.679C387.645 161.034 387.611 161.102 387.542 161.102C384.709 161.58 382.319 163.831 381.671 166.696C381.637 166.798 381.568 166.935 381.5 167.071V229.793C381.534 229.861 381.602 229.895 381.602 229.963C382.285 233.101 384.197 235.045 387.303 235.829C387.406 235.864 387.474 235.932 387.542 236H450.389C450.458 235.966 450.492 235.898 450.56 235.864C453.667 235.147 455.578 233.271 456.363 230.168C456.398 230.065 456.363 229.929 456.398 229.827C456.398 229.793 456.466 229.759 456.5 229.724V167.173C456.5 167.105 456.432 167.071 456.432 166.969ZM425.025 202.576H424.65C421.816 202.576 418.949 202.576 416.115 202.576C415.979 202.576 415.842 202.576 415.706 202.576C415.706 202.61 415.672 202.61 415.672 202.644C415.672 202.78 415.672 202.917 415.672 203.053V229.349H408.195V202.61H398.808V196.641H424.991V202.576H425.025ZM450.219 220.413C450.15 221.573 449.98 222.699 449.502 223.79C449.365 224.131 449.263 224.438 449.092 224.779C448.478 226.075 447.454 226.996 446.259 227.746C444.893 228.599 443.391 229.076 441.821 229.383C440.08 229.724 438.339 229.827 436.564 229.759C435.71 229.724 434.857 229.724 434.003 229.622C431.989 229.383 430.009 228.94 428.166 228.053C428.063 228.019 427.927 227.849 427.927 227.746C427.927 225.529 427.927 223.312 427.927 221.095C427.927 221.061 427.927 221.027 427.927 220.959C428.473 221.334 429.019 221.709 429.566 222.016C430.897 222.801 432.365 223.347 433.867 223.688C435.164 223.995 436.461 224.029 437.759 223.96C438.749 223.926 439.739 223.688 440.626 223.244C441.411 222.835 442.06 222.289 442.231 221.368C442.401 220.55 442.333 219.731 441.855 219.015C441.172 217.992 440.216 217.344 439.158 216.798C437.963 216.218 436.769 215.707 435.54 215.161C433.73 214.342 431.955 213.456 430.487 212.091C429.292 210.966 428.405 209.636 427.995 208.033C427.756 207.078 427.688 206.123 427.722 205.168C427.756 202.814 428.61 200.802 430.282 199.131C431.648 197.767 433.321 196.948 435.164 196.471C436.427 196.164 437.69 195.925 438.987 195.891C439.909 195.891 440.831 195.789 441.718 195.823C443.118 195.857 444.484 195.925 445.849 196.266C446.737 196.505 447.658 196.744 448.546 196.948C448.717 196.982 448.785 197.085 448.785 197.289C448.785 199.404 448.785 201.553 448.785 203.667C448.785 203.735 448.785 203.804 448.751 203.906C448.478 203.735 448.239 203.599 448 203.462C446.907 202.849 445.747 202.439 444.552 202.132C443.221 201.825 441.889 201.621 440.524 201.655C439.602 201.689 438.646 201.825 437.793 202.132C436.734 202.508 435.881 203.121 435.505 204.247C435.198 205.134 435.437 205.884 435.983 206.6C436.666 207.487 437.588 208.101 438.578 208.578C439.909 209.226 441.275 209.772 442.572 210.386C444.074 211.102 445.576 211.819 446.839 212.876C447.931 213.797 448.921 214.82 449.468 216.184C449.775 217.003 450.048 217.855 450.048 218.776C450.185 219.322 450.253 219.868 450.219 220.413Z" fill="black"/>
<path d="M383.253 260V250.792H380.077V248.8H388.517V250.792H385.325V260H383.253ZM390.733 263.104L391.973 259.856L388.909 251.824H390.965L392.749 256.608C392.797 256.72 392.842 256.843 392.885 256.976C392.928 257.109 392.968 257.243 393.005 257.376C393.037 257.243 393.074 257.112 393.117 256.984C393.165 256.851 393.213 256.725 393.261 256.608L395.045 251.824H397.101L392.797 263.104H390.733ZM398.85 263.248V251.824H400.85V252.424C401.298 251.896 401.898 251.632 402.65 251.632C403.348 251.632 403.951 251.805 404.458 252.152C404.964 252.493 405.354 252.984 405.626 253.624C405.898 254.264 406.034 255.027 406.034 255.912C406.034 256.771 405.892 257.523 405.61 258.168C405.327 258.808 404.93 259.307 404.418 259.664C403.906 260.016 403.308 260.192 402.626 260.192C402.252 260.192 401.916 260.125 401.618 259.992C401.319 259.853 401.063 259.651 400.85 259.384V262.344L398.85 263.248ZM402.33 258.28C402.874 258.28 403.292 258.075 403.586 257.664C403.879 257.248 404.026 256.664 404.026 255.912C404.026 255.16 403.876 254.576 403.578 254.16C403.279 253.744 402.863 253.536 402.33 253.536C402.004 253.536 401.719 253.595 401.474 253.712C401.234 253.829 401.026 254.008 400.85 254.248V257.552C400.994 257.781 401.196 257.96 401.458 258.088C401.724 258.216 402.015 258.28 402.33 258.28ZM411.561 260.192C410.777 260.192 410.1 260.016 409.529 259.664C408.964 259.312 408.527 258.816 408.217 258.176C407.913 257.531 407.761 256.773 407.761 255.904C407.761 255.024 407.916 254.264 408.225 253.624C408.54 252.984 408.98 252.493 409.545 252.152C410.116 251.805 410.788 251.632 411.561 251.632C412.223 251.632 412.823 251.771 413.361 252.048C413.9 252.325 414.329 252.752 414.649 253.328C414.969 253.899 415.129 254.627 415.129 255.512C415.129 255.651 415.124 255.821 415.113 256.024C415.108 256.221 415.095 256.421 415.073 256.624H409.737C409.759 256.997 409.844 257.325 409.993 257.608C410.148 257.885 410.359 258.101 410.625 258.256C410.892 258.411 411.207 258.488 411.569 258.488C411.959 258.488 412.297 258.424 412.585 258.296C412.873 258.163 413.145 257.952 413.401 257.664L414.553 258.856C414.201 259.256 413.777 259.579 413.281 259.824C412.785 260.069 412.212 260.192 411.561 260.192ZM409.745 255.064H413.193C413.167 254.707 413.087 254.4 412.953 254.144C412.82 253.883 412.633 253.683 412.393 253.544C412.153 253.405 411.863 253.336 411.521 253.336C411.052 253.336 410.652 253.48 410.321 253.768C409.991 254.056 409.799 254.488 409.745 255.064ZM419.631 260.192C418.991 260.192 418.378 260.056 417.791 259.784C417.21 259.512 416.748 259.147 416.407 258.688L417.719 257.584C417.991 257.872 418.306 258.101 418.663 258.272C419.02 258.437 419.362 258.52 419.687 258.52C420.092 258.52 420.404 258.453 420.623 258.32C420.842 258.181 420.951 257.989 420.951 257.744C420.951 257.584 420.898 257.443 420.791 257.32C420.69 257.192 420.508 257.064 420.247 256.936C419.986 256.803 419.618 256.651 419.143 256.48C418.226 256.144 417.575 255.781 417.191 255.392C416.807 254.997 416.615 254.499 416.615 253.896C416.615 253.224 416.887 252.68 417.431 252.264C417.975 251.843 418.684 251.632 419.559 251.632C420.156 251.632 420.706 251.744 421.207 251.968C421.714 252.192 422.148 252.52 422.511 252.952L421.207 254.032C420.727 253.547 420.167 253.304 419.527 253.304C419.202 253.304 418.94 253.365 418.743 253.488C418.546 253.605 418.447 253.765 418.447 253.968C418.447 254.165 418.562 254.341 418.791 254.496C419.026 254.651 419.46 254.832 420.095 255.04C420.724 255.237 421.234 255.461 421.623 255.712C422.018 255.963 422.306 256.253 422.487 256.584C422.674 256.915 422.767 257.296 422.767 257.728C422.767 258.496 422.487 259.099 421.927 259.536C421.372 259.973 420.607 260.192 419.631 260.192ZM427.933 260.192C427.181 260.192 426.531 260.019 425.981 259.672C425.432 259.325 425.008 258.835 424.709 258.2C424.411 257.56 424.261 256.8 424.261 255.92C424.261 255.04 424.411 254.28 424.709 253.64C425.013 253 425.443 252.507 425.997 252.16C426.552 251.808 427.205 251.632 427.957 251.632C428.805 251.632 429.509 251.829 430.069 252.224C430.635 252.613 431.043 253.192 431.293 253.96L429.397 254.6C429.269 254.259 429.083 253.997 428.837 253.816C428.592 253.629 428.309 253.536 427.989 253.536C427.472 253.536 427.059 253.749 426.749 254.176C426.445 254.603 426.293 255.184 426.293 255.92C426.293 256.645 426.443 257.221 426.741 257.648C427.04 258.075 427.443 258.288 427.949 258.288C428.307 258.288 428.611 258.187 428.861 257.984C429.117 257.781 429.307 257.485 429.429 257.096L431.317 257.664C431.077 258.501 430.669 259.133 430.093 259.56C429.523 259.981 428.803 260.192 427.933 260.192ZM433.271 260V251.824H435.271V252.704C435.421 252.389 435.655 252.133 435.975 251.936C436.295 251.733 436.631 251.632 436.983 251.632C437.565 251.632 438.055 251.832 438.455 252.232L438.175 254.064C437.957 253.883 437.743 253.755 437.535 253.68C437.327 253.605 437.098 253.568 436.847 253.568C436.517 253.568 436.234 253.645 435.999 253.8C435.765 253.955 435.583 254.179 435.455 254.472C435.333 254.765 435.271 255.117 435.271 255.528V260H433.271ZM439.866 260V251.824H441.866V260H439.866ZM440.866 250.8C440.546 250.8 440.268 250.685 440.034 250.456C439.804 250.221 439.69 249.944 439.69 249.624C439.69 249.304 439.804 249.032 440.034 248.808C440.263 248.579 440.54 248.464 440.866 248.464C441.202 248.464 441.482 248.576 441.706 248.8C441.93 249.024 442.042 249.299 442.042 249.624C442.042 249.949 441.927 250.227 441.698 250.456C441.474 250.685 441.196 250.8 440.866 250.8ZM444.381 263.248V251.824H446.381V252.424C446.829 251.896 447.429 251.632 448.181 251.632C448.879 251.632 449.482 251.805 449.989 252.152C450.495 252.493 450.885 252.984 451.157 253.624C451.429 254.264 451.565 255.027 451.565 255.912C451.565 256.771 451.423 257.523 451.141 258.168C450.858 258.808 450.461 259.307 449.949 259.664C449.437 260.016 448.839 260.192 448.157 260.192C447.783 260.192 447.447 260.125 447.149 259.992C446.85 259.853 446.594 259.651 446.381 259.384V262.344L444.381 263.248ZM447.861 258.28C448.405 258.28 448.823 258.075 449.117 257.664C449.41 257.248 449.557 256.664 449.557 255.912C449.557 255.16 449.407 254.576 449.109 254.16C448.81 253.744 448.394 253.536 447.861 253.536C447.535 253.536 447.25 253.595 447.005 253.712C446.765 253.829 446.557 254.008 446.381 254.248V257.552C446.525 257.781 446.727 257.96 446.989 258.088C447.255 258.216 447.546 258.28 447.861 258.28ZM455.874 260.192C455.224 260.192 454.736 260.013 454.41 259.656C454.085 259.299 453.922 258.765 453.922 258.056V253.576H452.73V251.824H453.922V249.4L455.906 248.448V251.824H457.762V253.576H455.906V257.696C455.906 257.952 455.957 258.141 456.058 258.264C456.165 258.387 456.33 258.448 456.554 258.448C456.949 258.448 457.381 258.325 457.85 258.08L457.618 259.824C457.373 259.947 457.106 260.037 456.818 260.096C456.53 260.16 456.216 260.192 455.874 260.192Z" fill="black"/>
<path d="M609.5 161C634.517 161 659.483 161 684.5 161C684.5 186.017 684.5 211.034 684.5 236C659.534 236 634.517 236 609.5 236C609.5 210.932 609.5 185.966 609.5 161ZM676.6 200.703C675.081 197.968 673.004 196.095 670.017 195.436C667.89 194.93 665.763 194.93 663.636 195.386C656.748 196.804 653.811 205.109 658.268 210.629C659.838 212.553 661.914 213.718 664.091 214.731C666.016 215.642 667.991 216.503 669.915 217.465C671.232 218.124 671.789 219.339 671.637 220.808C671.485 222.276 670.472 223.086 669.206 223.542C666.37 224.555 663.079 223.643 661.154 221.263C660.749 220.757 660.344 220.2 659.939 219.643C658.015 220.757 656.141 221.82 654.267 222.935C655.432 225.213 657.052 227.036 659.281 228.252C663.079 230.328 667.079 230.632 671.181 229.619C673.865 228.961 676.144 227.594 677.562 225.112C680.195 220.402 678.676 214.528 674.017 211.641C671.941 210.375 669.611 209.515 667.434 208.4C666.37 207.843 665.256 207.337 664.345 206.628C662.724 205.311 663.028 202.678 664.851 201.665C666.624 200.652 669.105 201.26 670.472 203.032C670.776 203.387 670.979 203.792 671.283 204.197C673.004 203.032 674.777 201.868 676.6 200.703ZM629.25 223.694C630.263 225.872 631.732 227.594 633.808 228.708C636.492 230.176 639.429 230.429 642.417 229.974C645.101 229.569 647.329 228.353 648.798 225.922C650.013 223.897 650.368 221.668 650.368 219.288C650.368 211.591 650.368 203.893 650.368 196.196C650.368 195.993 650.368 195.74 650.368 195.487C647.988 195.487 645.709 195.487 643.328 195.487C643.328 195.791 643.328 196.044 643.328 196.348C643.328 203.944 643.328 211.49 643.328 219.086C643.328 219.795 643.278 220.554 643.177 221.263C642.974 222.428 642.366 223.289 641.202 223.643C639.024 224.302 637.252 223.643 635.985 221.77C635.682 221.263 635.378 220.757 635.023 220.251C633.048 221.415 631.175 222.529 629.25 223.694Z" fill="black"/>
<path d="M607.068 260.192C606.268 260.192 605.548 259.976 604.908 259.544C604.268 259.112 603.777 258.512 603.436 257.744L605.228 256.904C605.452 257.315 605.705 257.635 605.988 257.864C606.27 258.088 606.633 258.2 607.076 258.2C607.294 258.2 607.502 258.168 607.7 258.104C607.897 258.04 608.076 257.931 608.236 257.776C608.401 257.621 608.529 257.405 608.62 257.128C608.716 256.845 608.764 256.485 608.764 256.048V248.8H610.844V256.136C610.844 256.931 610.729 257.592 610.5 258.12C610.27 258.643 609.966 259.056 609.588 259.36C609.214 259.659 608.806 259.872 608.364 260C607.926 260.128 607.494 260.192 607.068 260.192ZM615.766 260.192C614.875 260.192 614.168 259.952 613.646 259.472C613.128 258.987 612.87 258.331 612.87 257.504C612.87 256.971 613.003 256.504 613.27 256.104C613.542 255.699 613.918 255.387 614.398 255.168C614.883 254.944 615.448 254.832 616.094 254.832C616.451 254.832 616.795 254.867 617.126 254.936C617.462 255 617.755 255.093 618.006 255.216V254.704C618.006 254.245 617.875 253.901 617.614 253.672C617.358 253.437 616.979 253.32 616.478 253.32C616.078 253.32 615.667 253.392 615.246 253.536C614.824 253.68 614.398 253.893 613.966 254.176L613.366 252.6C613.835 252.291 614.358 252.053 614.934 251.888C615.51 251.717 616.091 251.632 616.678 251.632C617.776 251.632 618.598 251.893 619.142 252.416C619.686 252.933 619.958 253.707 619.958 254.736V260H618.006V259.344C617.728 259.621 617.398 259.832 617.014 259.976C616.635 260.12 616.219 260.192 615.766 260.192ZM616.23 258.504C616.56 258.504 616.878 258.44 617.182 258.312C617.491 258.179 617.766 257.992 618.006 257.752V256.784C617.776 256.672 617.52 256.587 617.238 256.528C616.96 256.464 616.683 256.432 616.406 256.432C615.91 256.432 615.518 256.528 615.23 256.72C614.947 256.907 614.806 257.168 614.806 257.504C614.806 257.819 614.931 258.064 615.182 258.24C615.432 258.416 615.782 258.504 616.23 258.504ZM624.323 260L621.331 251.824H623.403L625.115 256.688C625.163 256.805 625.205 256.931 625.243 257.064C625.28 257.197 625.317 257.331 625.355 257.464C625.392 257.331 625.429 257.197 625.467 257.064C625.509 256.931 625.549 256.805 625.587 256.688L627.291 251.824H629.355L626.363 260H624.323ZM633.094 260.192C632.203 260.192 631.496 259.952 630.974 259.472C630.456 258.987 630.198 258.331 630.198 257.504C630.198 256.971 630.331 256.504 630.598 256.104C630.87 255.699 631.246 255.387 631.726 255.168C632.211 254.944 632.776 254.832 633.422 254.832C633.779 254.832 634.123 254.867 634.454 254.936C634.79 255 635.083 255.093 635.334 255.216V254.704C635.334 254.245 635.203 253.901 634.942 253.672C634.686 253.437 634.307 253.32 633.806 253.32C633.406 253.32 632.995 253.392 632.574 253.536C632.152 253.68 631.726 253.893 631.294 254.176L630.694 252.6C631.163 252.291 631.686 252.053 632.262 251.888C632.838 251.717 633.419 251.632 634.006 251.632C635.104 251.632 635.926 251.893 636.47 252.416C637.014 252.933 637.286 253.707 637.286 254.736V260H635.334V259.344C635.056 259.621 634.726 259.832 634.342 259.976C633.963 260.12 633.547 260.192 633.094 260.192ZM633.558 258.504C633.888 258.504 634.206 258.44 634.51 258.312C634.819 258.179 635.094 257.992 635.334 257.752V256.784C635.104 256.672 634.848 256.587 634.566 256.528C634.288 256.464 634.011 256.432 633.734 256.432C633.238 256.432 632.846 256.528 632.558 256.72C632.275 256.907 632.134 257.168 632.134 257.504C632.134 257.819 632.259 258.064 632.51 258.24C632.76 258.416 633.11 258.504 633.558 258.504ZM642.256 260.192C641.616 260.192 641.003 260.056 640.416 259.784C639.835 259.512 639.373 259.147 639.032 258.688L640.344 257.584C640.616 257.872 640.931 258.101 641.288 258.272C641.645 258.437 641.987 258.52 642.312 258.52C642.717 258.52 643.029 258.453 643.248 258.32C643.467 258.181 643.576 257.989 643.576 257.744C643.576 257.584 643.523 257.443 643.416 257.32C643.315 257.192 643.133 257.064 642.872 256.936C642.611 256.803 642.243 256.651 641.768 256.48C640.851 256.144 640.2 255.781 639.816 255.392C639.432 254.997 639.24 254.499 639.24 253.896C639.24 253.224 639.512 252.68 640.056 252.264C640.6 251.843 641.309 251.632 642.184 251.632C642.781 251.632 643.331 251.744 643.832 251.968C644.339 252.192 644.773 252.52 645.136 252.952L643.832 254.032C643.352 253.547 642.792 253.304 642.152 253.304C641.827 253.304 641.565 253.365 641.368 253.488C641.171 253.605 641.072 253.765 641.072 253.968C641.072 254.165 641.187 254.341 641.416 254.496C641.651 254.651 642.085 254.832 642.72 255.04C643.349 255.237 643.859 255.461 644.248 255.712C644.643 255.963 644.931 256.253 645.112 256.584C645.299 256.915 645.392 257.296 645.392 257.728C645.392 258.496 645.112 259.099 644.552 259.536C643.997 259.973 643.232 260.192 642.256 260.192ZM651.187 260.192C650.488 260.192 649.854 260.069 649.283 259.824C648.712 259.579 648.222 259.232 647.811 258.784C647.406 258.331 647.102 257.797 646.899 257.184L648.779 256.488C649.019 257 649.352 257.421 649.779 257.752C650.211 258.077 650.696 258.24 651.235 258.24C651.806 258.24 652.259 258.12 652.595 257.88C652.936 257.64 653.107 257.291 653.107 256.832C653.107 256.517 653.006 256.256 652.803 256.048C652.606 255.835 652.336 255.653 651.995 255.504C651.659 255.349 651.278 255.2 650.851 255.056C650.44 254.917 650.027 254.763 649.611 254.592C649.195 254.421 648.814 254.213 648.467 253.968C648.12 253.717 647.84 253.403 647.627 253.024C647.419 252.645 647.315 252.181 647.315 251.632C647.315 251.083 647.462 250.579 647.755 250.12C648.048 249.661 648.472 249.296 649.027 249.024C649.587 248.747 650.264 248.608 651.059 248.608C651.71 248.608 652.286 248.72 652.787 248.944C653.294 249.163 653.712 249.461 654.043 249.84C654.374 250.219 654.603 250.648 654.731 251.128L652.875 251.744C652.726 251.408 652.496 251.128 652.187 250.904C651.883 250.675 651.47 250.56 650.947 250.56C650.456 250.56 650.075 250.656 649.803 250.848C649.531 251.04 649.395 251.312 649.395 251.664C649.395 251.904 649.486 252.109 649.667 252.28C649.854 252.445 650.102 252.595 650.411 252.728C650.726 252.861 651.08 252.997 651.475 253.136C651.918 253.285 652.358 253.456 652.795 253.648C653.238 253.835 653.638 254.064 653.995 254.336C654.358 254.608 654.648 254.947 654.867 255.352C655.086 255.752 655.195 256.243 655.195 256.824C655.195 257.539 655.016 258.147 654.659 258.648C654.307 259.149 653.83 259.533 653.227 259.8C652.624 260.061 651.944 260.192 651.187 260.192ZM660.23 260.192C659.478 260.192 658.828 260.019 658.278 259.672C657.729 259.325 657.305 258.835 657.006 258.2C656.708 257.56 656.558 256.8 656.558 255.92C656.558 255.04 656.708 254.28 657.006 253.64C657.31 253 657.74 252.507 658.294 252.16C658.849 251.808 659.502 251.632 660.254 251.632C661.102 251.632 661.806 251.829 662.366 252.224C662.932 252.613 663.34 253.192 663.59 253.96L661.694 254.6C661.566 254.259 661.38 253.997 661.134 253.816C660.889 253.629 660.606 253.536 660.286 253.536C659.769 253.536 659.356 253.749 659.046 254.176C658.742 254.603 658.59 255.184 658.59 255.92C658.59 256.645 658.74 257.221 659.038 257.648C659.337 258.075 659.74 258.288 660.246 258.288C660.604 258.288 660.908 258.187 661.158 257.984C661.414 257.781 661.604 257.485 661.726 257.096L663.614 257.664C663.374 258.501 662.966 259.133 662.39 259.56C661.82 259.981 661.1 260.192 660.23 260.192ZM665.568 260V251.824H667.568V252.704C667.718 252.389 667.952 252.133 668.272 251.936C668.592 251.733 668.928 251.632 669.28 251.632C669.862 251.632 670.352 251.832 670.752 252.232L670.472 254.064C670.254 253.883 670.04 253.755 669.832 253.68C669.624 253.605 669.395 253.568 669.144 253.568C668.814 253.568 668.531 253.645 668.296 253.8C668.062 253.955 667.88 254.179 667.752 254.472C667.63 254.765 667.568 255.117 667.568 255.528V260H665.568ZM672.162 260V251.824H674.162V260H672.162ZM673.162 250.8C672.842 250.8 672.565 250.685 672.33 250.456C672.101 250.221 671.986 249.944 671.986 249.624C671.986 249.304 672.101 249.032 672.33 248.808C672.56 248.579 672.837 248.464 673.162 248.464C673.498 248.464 673.778 248.576 674.002 248.8C674.226 249.024 674.338 249.299 674.338 249.624C674.338 249.949 674.224 250.227 673.994 250.456C673.77 250.685 673.493 250.8 673.162 250.8ZM676.678 263.248V251.824H678.678V252.424C679.126 251.896 679.726 251.632 680.478 251.632C681.176 251.632 681.779 251.805 682.286 252.152C682.792 252.493 683.182 252.984 683.454 253.624C683.726 254.264 683.862 255.027 683.862 255.912C683.862 256.771 683.72 257.523 683.438 258.168C683.155 258.808 682.758 259.307 682.246 259.664C681.734 260.016 681.136 260.192 680.454 260.192C680.08 260.192 679.744 260.125 679.446 259.992C679.147 259.853 678.891 259.651 678.678 259.384V262.344L676.678 263.248ZM680.158 258.28C680.702 258.28 681.12 258.075 681.414 257.664C681.707 257.248 681.854 256.664 681.854 255.912C681.854 255.16 681.704 254.576 681.406 254.16C681.107 253.744 680.691 253.536 680.158 253.536C679.832 253.536 679.547 253.595 679.302 253.712C679.062 253.829 678.854 254.008 678.678 254.248V257.552C678.822 257.781 679.024 257.96 679.286 258.088C679.552 258.216 679.843 258.28 680.158 258.28ZM688.171 260.192C687.52 260.192 687.032 260.013 686.707 259.656C686.382 259.299 686.219 258.765 686.219 258.056V253.576H685.027V251.824H686.219V249.4L688.203 248.448V251.824H690.059V253.576H688.203V257.696C688.203 257.952 688.254 258.141 688.355 258.264C688.462 258.387 688.627 258.448 688.851 258.448C689.246 258.448 689.678 258.325 690.147 258.08L689.915 259.824C689.67 259.947 689.403 260.037 689.115 260.096C688.827 260.16 688.512 260.192 688.171 260.192Z" fill="black"/>
<path d="M875 221.667L892.453 216.958L894.807 191.54H863.765L862.994 183.087H895.581L896.439 174.796H853.561L855.964 199.839H885.506L884.52 210.586L875 213.088L865.48 210.586L864.883 203.671H856.308L857.55 216.961L875 221.667ZM841 161H909L902.869 228.5L875 236L847.131 228.5L841 161Z" fill="black"/>
<path d="M854.789 260V248.8H856.861V253.24H861.597V248.8H863.669V260H861.597V255.216H856.861V260H854.789ZM868.737 260V250.792H865.561V248.8H874.001V250.792H870.809V260H868.737ZM881.035 260.192L878.171 253.952C878.133 253.872 878.093 253.779 878.051 253.672C878.008 253.565 877.971 253.459 877.939 253.352C877.944 253.437 877.947 253.539 877.947 253.656C877.952 253.773 877.955 253.877 877.955 253.968V260H875.883V248.8H877.955L880.795 255.152C880.848 255.269 880.896 255.387 880.939 255.504C880.987 255.616 881.032 255.733 881.075 255.856C881.117 255.733 881.16 255.613 881.203 255.496C881.245 255.379 881.291 255.264 881.339 255.152L884.235 248.8H886.179V260H884.107V253.952C884.107 253.856 884.107 253.749 884.107 253.632C884.112 253.515 884.115 253.419 884.115 253.344C884.083 253.44 884.043 253.544 883.995 253.656C883.952 253.763 883.909 253.861 883.867 253.952L881.035 260.192ZM888.805 260V248.8H890.877V257.992H896.293V260H888.805Z" fill="black"/>
<path d="M1070.01 161.013C1070.01 161.304 1069.99 161.502 1070.01 161.7C1070.51 167.198 1071.01 172.696 1071.5 178.207C1072.18 186.004 1072.85 193.801 1073.54 201.585C1074.32 210.334 1075.11 219.07 1075.86 227.819C1075.91 228.453 1076.13 228.731 1076.73 228.889C1085.16 231.215 1093.57 233.554 1102.01 235.867C1102.57 236.026 1103.26 236.052 1103.83 235.893C1112.29 233.567 1120.74 231.202 1129.2 228.863C1129.84 228.678 1130.07 228.387 1130.12 227.726C1130.39 224.422 1130.7 221.105 1130.99 217.801C1131.48 212.33 1131.95 206.859 1132.44 201.387C1133.01 194.964 1133.59 188.555 1134.15 182.132C1134.58 177.348 1135.02 172.577 1135.45 167.793C1135.64 165.546 1135.82 163.3 1136 161H1070.01V161.013ZM1123.27 180.097C1122.83 184.934 1122.4 189.784 1121.96 194.621C1121.46 200.185 1120.96 205.748 1120.46 211.299C1120.32 212.898 1120.1 214.497 1120.06 216.11C1120.04 216.969 1119.67 217.193 1118.96 217.391C1113.87 218.766 1108.8 220.18 1103.72 221.581C1103.5 221.647 1103.29 221.726 1103.06 221.792C1102.98 221.753 1102.9 221.726 1102.81 221.687C1097.38 220.206 1091.95 218.713 1086.52 217.206C1086.3 217.14 1086.01 216.784 1085.98 216.532C1085.6 212.409 1085.26 208.286 1084.89 204.083H1093.18C1093.32 205.735 1093.48 207.414 1093.61 209.105C1093.73 210.665 1093.72 210.665 1095.18 211.061C1097.8 211.762 1100.44 212.449 1103.06 213.136L1103.04 213.07C1105.91 212.303 1108.78 211.55 1111.66 210.731C1111.92 210.651 1112.22 210.229 1112.26 209.938C1112.43 208.669 1112.53 207.387 1112.63 206.118C1112.8 204.07 1112.97 202.022 1113.16 199.881H1103.04L1103.06 199.828C1103 199.828 1102.92 199.828 1102.85 199.828H1084.5C1084.25 197.092 1084.02 194.383 1083.77 191.594H1102.86C1102.93 191.594 1103.01 191.594 1103.08 191.594L1103.05 191.542H1113.9C1114.15 188.7 1114.4 185.925 1114.65 183.097H1103.04L1103.06 183.044C1103 183.044 1102.92 183.044 1102.85 183.044C1096.35 183.057 1089.86 183.057 1083.36 183.07C1083.27 183.07 1083.17 183.031 1083 182.978C1082.76 180.282 1082.51 177.586 1082.28 174.81H1102.85C1102.92 174.81 1103 174.81 1103.06 174.81L1103.04 174.758H1123.7C1123.56 176.608 1123.41 178.352 1123.27 180.097Z" fill="black"/>
<path d="M1093.71 260.176C1092.84 260.176 1092.1 260.008 1091.5 259.672C1090.9 259.336 1090.42 258.891 1090.05 258.336C1089.69 257.776 1089.43 257.155 1089.26 256.472C1089.1 255.789 1089.01 255.099 1089.01 254.4C1089.01 253.739 1089.1 253.069 1089.26 252.392C1089.43 251.709 1089.7 251.083 1090.07 250.512C1090.44 249.936 1090.93 249.475 1091.53 249.128C1092.12 248.781 1092.85 248.608 1093.71 248.608C1094.42 248.608 1095.03 248.728 1095.56 248.968C1096.08 249.203 1096.51 249.509 1096.85 249.888C1097.2 250.261 1097.46 250.653 1097.65 251.064L1095.79 251.928C1095.61 251.651 1095.42 251.413 1095.23 251.216C1095.04 251.013 1094.82 250.859 1094.57 250.752C1094.33 250.64 1094.05 250.584 1093.71 250.584C1093.23 250.584 1092.83 250.701 1092.5 250.936C1092.18 251.165 1091.91 251.469 1091.72 251.848C1091.52 252.227 1091.38 252.64 1091.29 253.088C1091.21 253.536 1091.17 253.973 1091.17 254.4C1091.17 254.853 1091.21 255.304 1091.31 255.752C1091.41 256.2 1091.56 256.608 1091.77 256.976C1091.97 257.344 1092.24 257.64 1092.56 257.864C1092.88 258.083 1093.26 258.192 1093.71 258.192C1094.19 258.192 1094.59 258.059 1094.92 257.792C1095.25 257.52 1095.54 257.173 1095.8 256.752L1097.69 257.464C1097.45 257.981 1097.15 258.445 1096.79 258.856C1096.43 259.267 1095.99 259.589 1095.49 259.824C1094.98 260.059 1094.39 260.176 1093.71 260.176ZM1103.23 260.192C1102.54 260.192 1101.9 260.069 1101.33 259.824C1100.76 259.579 1100.27 259.232 1099.86 258.784C1099.45 258.331 1099.15 257.797 1098.95 257.184L1100.83 256.488C1101.07 257 1101.4 257.421 1101.83 257.752C1102.26 258.077 1102.74 258.24 1103.28 258.24C1103.85 258.24 1104.31 258.12 1104.64 257.88C1104.98 257.64 1105.15 257.291 1105.15 256.832C1105.15 256.517 1105.05 256.256 1104.85 256.048C1104.65 255.835 1104.38 255.653 1104.04 255.504C1103.71 255.349 1103.32 255.2 1102.9 255.056C1102.49 254.917 1102.07 254.763 1101.66 254.592C1101.24 254.421 1100.86 254.213 1100.51 253.968C1100.17 253.717 1099.89 253.403 1099.67 253.024C1099.47 252.645 1099.36 252.181 1099.36 251.632C1099.36 251.083 1099.51 250.579 1099.8 250.12C1100.1 249.661 1100.52 249.296 1101.07 249.024C1101.63 248.747 1102.31 248.608 1103.11 248.608C1103.76 248.608 1104.33 248.72 1104.83 248.944C1105.34 249.163 1105.76 249.461 1106.09 249.84C1106.42 250.219 1106.65 250.648 1106.78 251.128L1104.92 251.744C1104.77 251.408 1104.54 251.128 1104.23 250.904C1103.93 250.675 1103.52 250.56 1102.99 250.56C1102.5 250.56 1102.12 250.656 1101.85 250.848C1101.58 251.04 1101.44 251.312 1101.44 251.664C1101.44 251.904 1101.53 252.109 1101.71 252.28C1101.9 252.445 1102.15 252.595 1102.46 252.728C1102.77 252.861 1103.13 252.997 1103.52 253.136C1103.96 253.285 1104.4 253.456 1104.84 253.648C1105.28 253.835 1105.68 254.064 1106.04 254.336C1106.4 254.608 1106.7 254.947 1106.91 255.352C1107.13 255.752 1107.24 256.243 1107.24 256.824C1107.24 257.539 1107.06 258.147 1106.71 258.648C1106.35 259.149 1105.88 259.533 1105.27 259.8C1104.67 260.061 1103.99 260.192 1103.23 260.192ZM1113.05 260.192C1112.35 260.192 1111.71 260.069 1111.14 259.824C1110.57 259.579 1110.08 259.232 1109.67 258.784C1109.26 258.331 1108.96 257.797 1108.76 257.184L1110.64 256.488C1110.88 257 1111.21 257.421 1111.64 257.752C1112.07 258.077 1112.56 258.24 1113.09 258.24C1113.66 258.24 1114.12 258.12 1114.45 257.88C1114.8 257.64 1114.97 257.291 1114.97 256.832C1114.97 256.517 1114.86 256.256 1114.66 256.048C1114.46 255.835 1114.2 255.653 1113.85 255.504C1113.52 255.349 1113.14 255.2 1112.71 255.056C1112.3 254.917 1111.89 254.763 1111.47 254.592C1111.05 254.421 1110.67 254.213 1110.33 253.968C1109.98 253.717 1109.7 253.403 1109.49 253.024C1109.28 252.645 1109.17 252.181 1109.17 251.632C1109.17 251.083 1109.32 250.579 1109.61 250.12C1109.91 249.661 1110.33 249.296 1110.89 249.024C1111.45 248.747 1112.12 248.608 1112.92 248.608C1113.57 248.608 1114.14 248.72 1114.65 248.944C1115.15 249.163 1115.57 249.461 1115.9 249.84C1116.23 250.219 1116.46 250.648 1116.59 251.128L1114.73 251.744C1114.58 251.408 1114.36 251.128 1114.05 250.904C1113.74 250.675 1113.33 250.56 1112.81 250.56C1112.32 250.56 1111.93 250.656 1111.66 250.848C1111.39 251.04 1111.25 251.312 1111.25 251.664C1111.25 251.904 1111.34 252.109 1111.53 252.28C1111.71 252.445 1111.96 252.595 1112.27 252.728C1112.58 252.861 1112.94 252.997 1113.33 253.136C1113.78 253.285 1114.22 253.456 1114.65 253.648C1115.1 253.835 1115.5 254.064 1115.85 254.336C1116.22 254.608 1116.51 254.947 1116.73 255.352C1116.94 255.752 1117.05 256.243 1117.05 256.824C1117.05 257.539 1116.88 258.147 1116.52 258.648C1116.17 259.149 1115.69 259.533 1115.09 259.8C1114.48 260.061 1113.8 260.192 1113.05 260.192Z" fill="black"/>
<path d="M165.348 384.465L172.824 336.954C173.082 335.335 175.273 334.951 176.047 336.4L184.082 351.314L165.348 384.465ZM218.5 396.012L211.367 352.251C211.152 350.888 209.434 350.334 208.445 351.314L163.5 396.012L188.379 409.861C189.926 410.713 191.859 410.713 193.406 409.861L218.5 396.012ZM198.305 357.833L192.547 346.968C191.902 345.732 190.141 345.732 189.496 346.968L164.188 391.709L198.305 357.833Z" fill="black"/>
<path d="M160.476 434.5V423.3H167.924V425.268H162.548V427.732H165.988V429.7H162.548V434.5H160.476ZM169.6 434.5V426.324H171.6V434.5H169.6ZM170.6 425.3C170.28 425.3 170.003 425.185 169.768 424.956C169.539 424.721 169.424 424.444 169.424 424.124C169.424 423.804 169.539 423.532 169.768 423.308C169.997 423.079 170.275 422.964 170.6 422.964C170.936 422.964 171.216 423.076 171.44 423.3C171.664 423.524 171.776 423.799 171.776 424.124C171.776 424.449 171.661 424.727 171.432 424.956C171.208 425.185 170.931 425.3 170.6 425.3ZM174.115 434.5V426.324H176.115V427.204C176.265 426.889 176.499 426.633 176.819 426.436C177.139 426.233 177.475 426.132 177.827 426.132C178.409 426.132 178.899 426.332 179.299 426.732L179.019 428.564C178.801 428.383 178.587 428.255 178.379 428.18C178.171 428.105 177.942 428.068 177.691 428.068C177.361 428.068 177.078 428.145 176.843 428.3C176.609 428.455 176.427 428.679 176.299 428.972C176.177 429.265 176.115 429.617 176.115 430.028V434.5H174.115ZM183.718 434.692C182.934 434.692 182.256 434.516 181.686 434.164C181.12 433.812 180.683 433.316 180.374 432.676C180.07 432.031 179.918 431.273 179.918 430.404C179.918 429.524 180.072 428.764 180.382 428.124C180.696 427.484 181.136 426.993 181.702 426.652C182.272 426.305 182.944 426.132 183.718 426.132C184.379 426.132 184.979 426.271 185.518 426.548C186.056 426.825 186.486 427.252 186.806 427.828C187.126 428.399 187.286 429.127 187.286 430.012C187.286 430.151 187.28 430.321 187.27 430.524C187.264 430.721 187.251 430.921 187.23 431.124H181.894C181.915 431.497 182 431.825 182.15 432.108C182.304 432.385 182.515 432.601 182.782 432.756C183.048 432.911 183.363 432.988 183.726 432.988C184.115 432.988 184.454 432.924 184.742 432.796C185.03 432.663 185.302 432.452 185.558 432.164L186.71 433.356C186.358 433.756 185.934 434.079 185.438 434.324C184.942 434.569 184.368 434.692 183.718 434.692ZM181.902 429.564H185.35C185.323 429.207 185.243 428.9 185.11 428.644C184.976 428.383 184.79 428.183 184.55 428.044C184.31 427.905 184.019 427.836 183.678 427.836C183.208 427.836 182.808 427.98 182.478 428.268C182.147 428.556 181.955 428.988 181.902 429.564ZM192.968 434.692C192.594 434.692 192.272 434.625 192 434.492C191.733 434.359 191.485 434.143 191.256 433.844V434.5H189.256V423.852L191.256 422.948V426.964C191.464 426.697 191.72 426.492 192.024 426.348C192.333 426.204 192.669 426.132 193.032 426.132C193.709 426.132 194.301 426.311 194.808 426.668C195.314 427.025 195.709 427.527 195.992 428.172C196.28 428.812 196.424 429.556 196.424 430.404C196.424 431.753 196.117 432.807 195.504 433.564C194.896 434.316 194.05 434.692 192.968 434.692ZM192.728 432.78C193.272 432.78 193.688 432.575 193.976 432.164C194.269 431.753 194.416 431.167 194.416 430.404C194.416 429.641 194.269 429.057 193.976 428.652C193.688 428.241 193.272 428.036 192.728 428.036C192.429 428.036 192.146 428.103 191.88 428.236C191.613 428.364 191.405 428.537 191.256 428.756V432.06C191.421 432.295 191.624 432.473 191.864 432.596C192.104 432.719 192.392 432.78 192.728 432.78ZM200.969 434.692C200.078 434.692 199.371 434.452 198.849 433.972C198.331 433.487 198.073 432.831 198.073 432.004C198.073 431.471 198.206 431.004 198.473 430.604C198.745 430.199 199.121 429.887 199.601 429.668C200.086 429.444 200.651 429.332 201.297 429.332C201.654 429.332 201.998 429.367 202.329 429.436C202.665 429.5 202.958 429.593 203.209 429.716V429.204C203.209 428.745 203.078 428.401 202.817 428.172C202.561 427.937 202.182 427.82 201.681 427.82C201.281 427.82 200.87 427.892 200.449 428.036C200.027 428.18 199.601 428.393 199.169 428.676L198.569 427.1C199.038 426.791 199.561 426.553 200.137 426.388C200.713 426.217 201.294 426.132 201.881 426.132C202.979 426.132 203.801 426.393 204.345 426.916C204.889 427.433 205.161 428.207 205.161 429.236V434.5H203.209V433.844C202.931 434.121 202.601 434.332 202.217 434.476C201.838 434.62 201.422 434.692 200.969 434.692ZM201.433 433.004C201.763 433.004 202.081 432.94 202.385 432.812C202.694 432.679 202.969 432.492 203.209 432.252V431.284C202.979 431.172 202.723 431.087 202.441 431.028C202.163 430.964 201.886 430.932 201.609 430.932C201.113 430.932 200.721 431.028 200.433 431.22C200.15 431.407 200.009 431.668 200.009 432.004C200.009 432.319 200.134 432.564 200.385 432.74C200.635 432.916 200.985 433.004 201.433 433.004ZM210.131 434.692C209.491 434.692 208.878 434.556 208.291 434.284C207.71 434.012 207.248 433.647 206.907 433.188L208.219 432.084C208.491 432.372 208.806 432.601 209.163 432.772C209.52 432.937 209.862 433.02 210.187 433.02C210.592 433.02 210.904 432.953 211.123 432.82C211.342 432.681 211.451 432.489 211.451 432.244C211.451 432.084 211.398 431.943 211.291 431.82C211.19 431.692 211.008 431.564 210.747 431.436C210.486 431.303 210.118 431.151 209.643 430.98C208.726 430.644 208.075 430.281 207.691 429.892C207.307 429.497 207.115 428.999 207.115 428.396C207.115 427.724 207.387 427.18 207.931 426.764C208.475 426.343 209.184 426.132 210.059 426.132C210.656 426.132 211.206 426.244 211.707 426.468C212.214 426.692 212.648 427.02 213.011 427.452L211.707 428.532C211.227 428.047 210.667 427.804 210.027 427.804C209.702 427.804 209.44 427.865 209.243 427.988C209.046 428.105 208.947 428.265 208.947 428.468C208.947 428.665 209.062 428.841 209.291 428.996C209.526 429.151 209.96 429.332 210.595 429.54C211.224 429.737 211.734 429.961 212.123 430.212C212.518 430.463 212.806 430.753 212.987 431.084C213.174 431.415 213.267 431.796 213.267 432.228C213.267 432.996 212.987 433.599 212.427 434.036C211.872 434.473 211.107 434.692 210.131 434.692ZM218.561 434.692C217.777 434.692 217.1 434.516 216.529 434.164C215.964 433.812 215.527 433.316 215.217 432.676C214.913 432.031 214.761 431.273 214.761 430.404C214.761 429.524 214.916 428.764 215.225 428.124C215.54 427.484 215.98 426.993 216.545 426.652C217.116 426.305 217.788 426.132 218.561 426.132C219.223 426.132 219.823 426.271 220.361 426.548C220.9 426.825 221.329 427.252 221.649 427.828C221.969 428.399 222.129 429.127 222.129 430.012C222.129 430.151 222.124 430.321 222.113 430.524C222.108 430.721 222.095 430.921 222.073 431.124H216.737C216.759 431.497 216.844 431.825 216.993 432.108C217.148 432.385 217.359 432.601 217.625 432.756C217.892 432.911 218.207 432.988 218.569 432.988C218.959 432.988 219.297 432.924 219.585 432.796C219.873 432.663 220.145 432.452 220.401 432.164L221.553 433.356C221.201 433.756 220.777 434.079 220.281 434.324C219.785 434.569 219.212 434.692 218.561 434.692ZM216.745 429.564H220.193C220.167 429.207 220.087 428.9 219.953 428.644C219.82 428.383 219.633 428.183 219.393 428.044C219.153 427.905 218.863 427.836 218.521 427.836C218.052 427.836 217.652 427.98 217.321 428.268C216.991 428.556 216.799 428.988 216.745 429.564Z" fill="black"/>
<path d="M455.103 369.697L422.309 336.907C420.433 335.031 417.333 335.031 415.456 336.907L408.686 343.677L417.333 352.323C419.372 351.67 421.656 352.078 423.206 353.71C424.838 355.341 425.246 357.625 424.593 359.664L432.914 367.984C434.953 367.331 437.237 367.739 438.869 369.37C441.153 371.573 441.153 375.243 438.869 377.527C436.585 379.811 432.995 379.811 430.711 377.527C428.998 375.814 428.59 373.367 429.488 371.246L421.738 363.498V383.889C422.309 384.134 422.798 384.542 423.288 384.949C425.572 387.152 425.572 390.822 423.288 393.106C421.004 395.308 417.414 395.308 415.13 393.106C412.846 390.822 412.846 387.233 415.13 384.949C415.701 384.378 416.354 383.971 417.006 383.726V363.09C416.354 362.845 415.701 362.356 415.13 361.866C413.417 360.153 413.009 357.706 413.906 355.586L405.341 347.103L382.907 369.533C381.031 371.409 381.031 374.509 382.907 376.385L415.62 409.093C417.496 410.969 420.596 410.969 422.472 409.093L455.021 376.548C456.979 374.591 456.979 371.573 455.103 369.697Z" fill="black"/>
<path d="M413.917 434.692C413.058 434.692 412.319 434.532 411.701 434.212C411.082 433.887 410.578 433.449 410.189 432.9C409.799 432.345 409.509 431.724 409.317 431.036C409.13 430.343 409.037 429.631 409.037 428.9C409.037 428.201 409.133 427.511 409.325 426.828C409.522 426.145 409.818 425.524 410.213 424.964C410.613 424.404 411.119 423.956 411.733 423.62C412.346 423.279 413.074 423.108 413.917 423.108C414.631 423.108 415.234 423.22 415.725 423.444C416.221 423.668 416.637 423.961 416.973 424.324C417.314 424.681 417.61 425.06 417.861 425.46L416.037 426.5C415.791 426.121 415.501 425.791 415.165 425.508C414.834 425.225 414.418 425.084 413.917 425.084C413.394 425.084 412.957 425.201 412.605 425.436C412.258 425.671 411.981 425.977 411.773 426.356C411.565 426.735 411.415 427.148 411.325 427.596C411.234 428.039 411.189 428.473 411.189 428.9C411.189 429.385 411.239 429.855 411.341 430.308C411.442 430.761 411.602 431.169 411.821 431.532C412.039 431.895 412.322 432.183 412.669 432.396C413.015 432.604 413.431 432.708 413.917 432.708C414.285 432.708 414.618 432.625 414.917 432.46C415.221 432.295 415.461 432.073 415.637 431.796C415.813 431.513 415.901 431.196 415.901 430.844V430.636H413.997V428.676H418.037V430.292C418.037 431.241 417.853 432.044 417.485 432.7C417.122 433.351 416.629 433.847 416.005 434.188C415.386 434.524 414.69 434.692 413.917 434.692ZM420.311 434.5V426.324H422.311V434.5H420.311ZM421.311 425.3C420.991 425.3 420.714 425.185 420.479 424.956C420.25 424.721 420.135 424.444 420.135 424.124C420.135 423.804 420.25 423.532 420.479 423.308C420.708 423.079 420.986 422.964 421.311 422.964C421.647 422.964 421.927 423.076 422.151 423.3C422.375 423.524 422.487 423.799 422.487 424.124C422.487 424.449 422.372 424.727 422.143 424.956C421.919 425.185 421.642 425.3 421.311 425.3ZM427.21 434.692C426.559 434.692 426.071 434.513 425.746 434.156C425.421 433.799 425.258 433.265 425.258 432.556V428.076H424.066V426.324H425.258V423.9L427.242 422.948V426.324H429.098V428.076H427.242V432.196C427.242 432.452 427.293 432.641 427.394 432.764C427.501 432.887 427.666 432.948 427.89 432.948C428.285 432.948 428.717 432.825 429.186 432.58L428.954 434.324C428.709 434.447 428.442 434.537 428.154 434.596C427.866 434.66 427.551 434.692 427.21 434.692Z" fill="black"/>
<path fill-rule="evenodd" clip-rule="evenodd" d="M685.301 355.205L678.211 365.135L671.121 355.205H674.987C674.692 347.826 668.608 341.924 661.171 341.924C654.896 341.924 649.574 346.142 647.893 351.889C645.847 351.229 643.733 350.812 641.583 350.622C641.826 349.701 642.138 348.781 642.519 347.896C643.542 345.483 644.998 343.312 646.853 341.455C648.708 339.597 650.874 338.122 653.284 337.115C655.78 336.038 658.432 335.5 661.171 335.5C663.91 335.5 666.562 336.038 669.059 337.097C671.468 338.122 673.635 339.58 675.49 341.438C677.345 343.295 678.801 345.465 679.824 347.878C680.812 350.205 681.349 352.67 681.401 355.205H685.301Z" fill="black"/>
<path fill-rule="evenodd" clip-rule="evenodd" d="M675.386 410.5V406.229H650.944C651.117 406.142 651.291 406.073 651.464 405.986C654.116 404.719 656.56 403.069 658.744 401.055C659.039 400.778 659.317 400.517 659.577 400.257C659.871 399.962 660.183 399.649 660.478 399.319C660.825 398.937 661.171 398.538 661.483 398.139H675.386V393.868L687 402.184L675.386 410.5Z" fill="black"/>
<path fill-rule="evenodd" clip-rule="evenodd" d="M666.372 379.649C666.372 383.347 665.644 386.941 664.222 390.326C663.009 393.208 661.31 395.847 659.195 398.156C658.918 398.451 658.64 398.747 658.363 399.042C658.103 399.302 657.843 399.545 657.583 399.806C655.537 401.698 653.249 403.243 650.753 404.441C650.406 404.615 650.042 404.771 649.678 404.927C649.661 404.927 649.661 404.944 649.644 404.944C647.563 405.83 645.327 406.264 643.056 406.264H607V398.191H640.473C650.597 398.191 658.9 390.083 659.039 379.944C659.039 379.858 659.039 379.771 659.039 379.684C659.039 368.608 650.06 359.615 639 359.615C627.94 359.58 618.961 368.556 618.961 379.649H623.607L615.303 391.281L607 379.649H611.646C611.646 375.951 612.374 372.358 613.795 368.972C615.182 365.708 617.141 362.774 619.654 360.257C622.168 357.74 625.098 355.76 628.356 354.389C631.737 352.965 635.325 352.236 639.017 352.236C639.763 352.236 640.491 352.271 641.219 352.323C643.368 352.497 645.466 352.913 647.511 353.59C648.239 353.833 648.95 354.094 649.661 354.406C652.92 355.795 655.849 357.757 658.363 360.274C660.876 362.792 662.853 365.726 664.222 368.99C665.644 372.358 666.372 375.951 666.372 379.649Z" fill="black"/>
<path d="M627.835 434.692C627.137 434.692 626.502 434.569 625.931 434.324C625.361 434.079 624.87 433.732 624.459 433.284C624.054 432.831 623.75 432.297 623.547 431.684L625.427 430.988C625.667 431.5 626.001 431.921 626.427 432.252C626.859 432.577 627.345 432.74 627.883 432.74C628.454 432.74 628.907 432.62 629.243 432.38C629.585 432.14 629.755 431.791 629.755 431.332C629.755 431.017 629.654 430.756 629.451 430.548C629.254 430.335 628.985 430.153 628.643 430.004C628.307 429.849 627.926 429.7 627.499 429.556C627.089 429.417 626.675 429.263 626.259 429.092C625.843 428.921 625.462 428.713 625.115 428.468C624.769 428.217 624.489 427.903 624.275 427.524C624.067 427.145 623.963 426.681 623.963 426.132C623.963 425.583 624.11 425.079 624.403 424.62C624.697 424.161 625.121 423.796 625.675 423.524C626.235 423.247 626.913 423.108 627.707 423.108C628.358 423.108 628.934 423.22 629.435 423.444C629.942 423.663 630.361 423.961 630.691 424.34C631.022 424.719 631.251 425.148 631.379 425.628L629.523 426.244C629.374 425.908 629.145 425.628 628.835 425.404C628.531 425.175 628.118 425.06 627.595 425.06C627.105 425.06 626.723 425.156 626.451 425.348C626.179 425.54 626.043 425.812 626.043 426.164C626.043 426.404 626.134 426.609 626.315 426.78C626.502 426.945 626.75 427.095 627.059 427.228C627.374 427.361 627.729 427.497 628.123 427.636C628.566 427.785 629.006 427.956 629.443 428.148C629.886 428.335 630.286 428.564 630.643 428.836C631.006 429.108 631.297 429.447 631.515 429.852C631.734 430.252 631.843 430.743 631.843 431.324C631.843 432.039 631.665 432.647 631.307 433.148C630.955 433.649 630.478 434.033 629.875 434.3C629.273 434.561 628.593 434.692 627.835 434.692ZM636.879 434.692C636.127 434.692 635.476 434.519 634.927 434.172C634.377 433.825 633.953 433.335 633.655 432.7C633.356 432.06 633.207 431.3 633.207 430.42C633.207 429.54 633.356 428.78 633.655 428.14C633.959 427.5 634.388 427.007 634.943 426.66C635.497 426.308 636.151 426.132 636.903 426.132C637.751 426.132 638.455 426.329 639.015 426.724C639.58 427.113 639.988 427.692 640.239 428.46L638.343 429.1C638.215 428.759 638.028 428.497 637.783 428.316C637.537 428.129 637.255 428.036 636.935 428.036C636.417 428.036 636.004 428.249 635.695 428.676C635.391 429.103 635.239 429.684 635.239 430.42C635.239 431.145 635.388 431.721 635.687 432.148C635.985 432.575 636.388 432.788 636.895 432.788C637.252 432.788 637.556 432.687 637.807 432.484C638.063 432.281 638.252 431.985 638.375 431.596L640.263 432.164C640.023 433.001 639.615 433.633 639.039 434.06C638.468 434.481 637.748 434.692 636.879 434.692ZM642.217 434.5V426.324H644.217V427.204C644.366 426.889 644.601 426.633 644.921 426.436C645.241 426.233 645.577 426.132 645.929 426.132C646.51 426.132 647.001 426.332 647.401 426.732L647.121 428.564C646.902 428.383 646.689 428.255 646.481 428.18C646.273 428.105 646.043 428.068 645.793 428.068C645.462 428.068 645.179 428.145 644.945 428.3C644.71 428.455 644.529 428.679 644.401 428.972C644.278 429.265 644.217 429.617 644.217 430.028V434.5H642.217ZM651.681 434.692C650.769 434.692 650.062 434.409 649.561 433.844C649.059 433.273 648.809 432.468 648.809 431.428V426.324H650.809V430.804C650.809 431.492 650.926 431.993 651.161 432.308C651.395 432.623 651.766 432.78 652.273 432.78C652.817 432.78 653.217 432.623 653.473 432.308C653.734 431.988 653.865 431.497 653.865 430.836V426.324H655.857V434.5H653.865V433.732C653.614 434.052 653.305 434.292 652.937 434.452C652.574 434.612 652.155 434.692 651.681 434.692ZM658.373 434.5V426.324H660.373V427.084C660.634 426.753 660.928 426.513 661.253 426.364C661.584 426.209 661.957 426.132 662.373 426.132C662.858 426.132 663.274 426.231 663.621 426.428C663.968 426.625 664.237 426.913 664.429 427.292C664.701 426.919 665.05 426.633 665.477 426.436C665.904 426.233 666.386 426.132 666.925 426.132C667.928 426.132 668.685 426.401 669.197 426.94C669.709 427.479 669.965 428.279 669.965 429.34V434.5H667.973V430.028C667.973 429.345 667.861 428.844 667.637 428.524C667.413 428.199 667.066 428.036 666.597 428.036C666.277 428.036 666.01 428.108 665.797 428.252C665.589 428.396 665.432 428.615 665.325 428.908C665.218 429.196 665.165 429.561 665.165 430.004V434.5H663.173V430.028C663.173 429.34 663.064 428.836 662.845 428.516C662.626 428.196 662.28 428.036 661.805 428.036C661.32 428.036 660.96 428.193 660.725 428.508C660.49 428.823 660.373 429.311 660.373 429.972V434.5H658.373Z" fill="black"/>
<path d="M866.018 404.115C861.025 402.693 856.634 400.076 852.8 396.421C851.597 396.849 850.371 397.278 849.123 397.684C848.543 397.865 847.964 397.797 847.362 397.571C846.292 397.165 845.646 396.375 845.178 395.405C844.531 394.119 843.707 392.946 843.06 391.66C842.481 390.464 841.634 389.426 841.143 388.185C840.898 387.576 840.252 387.17 840.252 386.403C839.672 385.455 840.229 384.62 840.564 383.785C840.653 383.56 840.764 383.266 840.965 383.176C841.767 382.815 842.169 382.003 842.837 381.506C843.149 381.281 843.484 381.032 843.84 380.762C843.328 378.167 842.882 375.572 842.882 372.91C842.882 370.27 843.35 367.72 843.84 365.193C842.971 364.381 842.169 363.591 841.322 362.847C840.452 362.079 839.94 361.132 840.051 360.139C840.118 359.597 840.274 359.011 840.542 358.56C841.366 357.228 842.124 355.829 842.926 354.476C843.573 353.393 844.13 352.264 844.843 351.204C845.222 350.662 845.445 350.031 845.824 349.467C846.559 348.406 848.031 347.887 849.234 348.248C850.304 348.564 851.307 349.038 852.399 349.241C852.511 349.264 852.6 349.421 852.711 349.534C856.567 345.902 860.958 343.307 865.995 341.795C866.196 341.186 866.241 340.532 866.486 339.9C866.664 339.426 866.619 338.839 866.709 338.32C866.954 336.967 867.778 336.177 868.96 335.771C869.383 335.635 869.807 335.5 870.319 335.5C873.44 335.545 876.56 335.545 879.681 335.5C880.572 335.5 881.33 335.861 882.043 336.267C882.69 336.606 883.046 337.328 883.225 338.005C883.537 339.245 883.715 340.509 883.96 341.818C888.975 343.262 893.366 345.856 897.2 349.512C898.403 349.083 899.629 348.654 900.877 348.248C901.457 348.068 902.036 348.135 902.638 348.361C903.708 348.767 904.354 349.557 904.822 350.527C905.469 351.813 906.293 352.986 906.94 354.273C907.519 355.468 908.366 356.506 908.857 357.747C909.102 358.356 909.748 358.763 909.748 359.53C910.328 360.477 909.771 361.312 909.436 362.147C909.347 362.373 909.236 362.666 909.035 362.756C908.233 363.117 907.831 363.93 907.163 364.426C906.851 364.652 906.516 364.9 906.16 365.171C906.672 367.765 907.118 370.36 907.118 373.023C907.118 375.662 906.717 378.212 906.16 380.739C907.029 381.551 907.831 382.341 908.678 383.086C909.548 383.853 910.06 384.801 909.949 385.793C909.882 386.335 909.748 386.921 909.458 387.373C908.656 388.681 907.898 390.035 907.118 391.366C906.137 393.014 905.335 394.796 904.198 396.353C903.998 397.21 903.195 397.278 902.616 397.594C901.992 397.932 901.368 397.842 900.677 397.639C899.651 397.346 898.671 396.827 897.601 396.691C897.489 396.669 897.4 396.511 897.289 396.398C893.433 400.076 889.064 402.693 883.96 404.16C883.715 405.378 883.492 406.642 883.225 407.883C882.957 409.101 882.155 409.868 881.018 410.229C880.594 410.365 880.149 410.5 879.658 410.5C876.538 410.455 873.417 410.455 870.297 410.5C869.406 410.5 868.648 410.139 867.934 409.733C867.288 409.394 866.909 408.672 866.775 407.995C866.53 406.664 866.285 405.423 866.018 404.115ZM867.466 384.236C867.912 383.988 868.425 383.83 868.447 383.289C868.492 382.477 868.603 381.642 868.425 380.875C868.113 379.566 867.556 378.302 867.221 376.994C866.998 376.159 866.508 375.369 866.53 374.467C865.817 372.684 865.371 370.811 864.769 369.006C864.279 367.517 863.922 365.983 863.388 364.516C863.098 363.704 863.031 362.801 862.496 362.079C862.451 362.012 862.429 361.967 862.429 361.967C861.827 361.56 861.203 361.696 860.668 361.696C860.356 361.989 860.089 362.237 859.844 362.463C859.821 363.185 859.309 363.749 859.398 364.449C858.618 366.208 858.283 368.104 857.637 369.909C857.303 370.834 857.102 371.782 856.835 372.729C856.589 373.677 856.055 374.534 856.055 375.55C855.208 377.468 854.784 379.521 854.16 381.529C854.004 382.025 853.915 382.499 854.227 382.973C854.316 383.108 854.271 383.311 854.271 383.289C854.628 383.672 854.896 383.943 855.118 384.214C855.542 384.214 855.988 384.214 856.456 384.214C856.768 383.808 857.08 383.424 857.37 383.041C857.303 381.755 857.57 380.897 858.15 379.521C860.334 379.521 862.518 379.521 864.703 379.521C864.881 380.243 864.97 380.942 865.215 381.597C865.327 381.867 865.438 382.138 865.394 382.409C865.327 383.244 865.594 383.898 866.53 384.214C866.753 384.236 867.087 384.236 867.466 384.236ZM872.682 384.236C873.284 384.191 873.975 384.372 874.465 383.875C874.643 383.65 874.799 383.424 875.022 383.108C875.022 380.852 875.022 378.483 875.022 376.114C876.649 376.114 878.254 376.046 879.837 376.136C880.795 376.181 881.575 375.888 882.333 375.414C882.69 375.189 883.002 374.85 883.314 374.534C884.138 373.722 884.54 372.729 884.562 371.556C884.562 369.706 884.562 367.878 884.562 366.028C884.562 365.757 884.495 365.464 884.428 365.193C884.183 364.223 883.67 363.501 882.979 362.869C882.177 362.125 881.241 361.673 880.126 361.673C877.63 361.673 875.156 361.673 872.637 361.673C872.392 361.944 872.147 362.215 871.857 362.486C871.857 369.435 871.857 376.43 871.857 383.447C872.147 383.695 872.415 383.966 872.682 384.236ZM888.73 384.236C890.268 384.236 891.828 384.236 893.366 384.236C893.633 383.966 893.901 383.695 894.168 383.447C894.168 383.018 894.168 382.612 894.168 382.183C894.168 382.138 894.168 382.116 894.168 382.093C893.834 381.461 893.321 381.078 892.653 381.01C892.653 375.617 892.653 370.247 892.653 364.99C893.143 364.742 893.567 364.516 894.057 364.245C894.124 363.659 894.168 363.05 894.213 362.621C893.856 362.215 893.611 361.921 893.411 361.696C891.806 361.696 890.246 361.696 888.864 361.696C888.485 362.034 888.217 362.282 887.883 362.598C887.95 363.14 888.039 363.749 888.106 364.268C888.641 364.539 889.064 364.764 889.443 364.968C889.443 370.338 889.443 375.708 889.443 381.032C889.22 381.078 888.975 381.032 888.886 381.145C888.574 381.461 888.039 381.551 887.928 382.07C887.928 382.522 887.928 382.973 887.928 383.424C888.195 383.695 888.462 383.966 888.73 384.236Z" fill="black"/>
<path d="M863.521 376.068C862.206 376.113 860.824 376.136 859.442 376.181C859.398 376.181 859.331 376.271 859.197 376.384C859.22 374.985 860 373.857 860.089 372.571C860.757 371.443 860.824 370.112 861.27 368.848C861.404 368.983 861.604 369.119 861.604 369.232C861.627 370.202 862.184 371.037 862.362 371.962C862.496 372.594 862.853 373.203 862.942 373.835C863.031 374.647 863.566 375.256 863.521 376.068Z" fill="black"/>
<path d="M881.464 371.692C881.308 371.94 881.174 372.188 880.996 372.414C880.684 372.775 880.283 372.978 879.77 372.955C878.21 372.933 876.65 372.955 875.045 372.955C875.045 370.27 875.045 367.585 875.045 364.833C876.672 364.833 878.344 364.81 879.993 364.833C880.773 364.855 881.442 365.667 881.464 366.525C881.464 367.946 881.464 369.368 881.464 370.789C881.464 371.105 881.464 371.398 881.464 371.692Z" fill="black"/>
<path d="M844.258 434.5V423.3H849.354C850.287 423.3 851.023 423.463 851.562 423.788C852.106 424.108 852.492 424.532 852.722 425.06C852.956 425.588 853.074 426.156 853.074 426.764C853.074 427.185 852.991 427.612 852.826 428.044C852.666 428.476 852.42 428.865 852.09 429.212C851.759 429.559 851.343 429.815 850.842 429.98L853.05 434.5H850.722L848.602 430.26H846.33V434.5H844.258ZM846.33 428.308H849.386C849.775 428.308 850.082 428.236 850.306 428.092C850.535 427.943 850.698 427.751 850.794 427.516C850.89 427.281 850.938 427.033 850.938 426.772C850.938 426.537 850.892 426.303 850.802 426.068C850.711 425.833 850.554 425.639 850.33 425.484C850.106 425.329 849.791 425.252 849.386 425.252H846.33V428.308ZM858.077 434.692C857.293 434.692 856.616 434.516 856.045 434.164C855.48 433.812 855.042 433.316 854.733 432.676C854.429 432.031 854.277 431.273 854.277 430.404C854.277 429.524 854.432 428.764 854.741 428.124C855.056 427.484 855.496 426.993 856.061 426.652C856.632 426.305 857.304 426.132 858.077 426.132C858.738 426.132 859.338 426.271 859.877 426.548C860.416 426.825 860.845 427.252 861.165 427.828C861.485 428.399 861.645 429.127 861.645 430.012C861.645 430.151 861.64 430.321 861.629 430.524C861.624 430.721 861.61 430.921 861.589 431.124H856.253C856.274 431.497 856.36 431.825 856.509 432.108C856.664 432.385 856.874 432.601 857.141 432.756C857.408 432.911 857.722 432.988 858.085 432.988C858.474 432.988 858.813 432.924 859.101 432.796C859.389 432.663 859.661 432.452 859.917 432.164L861.069 433.356C860.717 433.756 860.293 434.079 859.797 434.324C859.301 434.569 858.728 434.692 858.077 434.692ZM856.261 429.564H859.709C859.682 429.207 859.602 428.9 859.469 428.644C859.336 428.383 859.149 428.183 858.909 428.044C858.669 427.905 858.378 427.836 858.037 427.836C857.568 427.836 857.168 427.98 856.837 428.268C856.506 428.556 856.314 428.988 856.261 429.564ZM866.147 434.692C865.507 434.692 864.893 434.556 864.307 434.284C863.725 434.012 863.264 433.647 862.923 433.188L864.235 432.084C864.507 432.372 864.821 432.601 865.179 432.772C865.536 432.937 865.877 433.02 866.203 433.02C866.608 433.02 866.92 432.953 867.139 432.82C867.357 432.681 867.467 432.489 867.467 432.244C867.467 432.084 867.413 431.943 867.307 431.82C867.205 431.692 867.024 431.564 866.763 431.436C866.501 431.303 866.133 431.151 865.659 430.98C864.741 430.644 864.091 430.281 863.707 429.892C863.323 429.497 863.131 428.999 863.131 428.396C863.131 427.724 863.403 427.18 863.947 426.764C864.491 426.343 865.2 426.132 866.075 426.132C866.672 426.132 867.221 426.244 867.723 426.468C868.229 426.692 868.664 427.02 869.027 427.452L867.723 428.532C867.243 428.047 866.683 427.804 866.043 427.804C865.717 427.804 865.456 427.865 865.259 427.988C865.061 428.105 864.963 428.265 864.963 428.468C864.963 428.665 865.077 428.841 865.307 428.996C865.541 429.151 865.976 429.332 866.611 429.54C867.24 429.737 867.749 429.961 868.139 430.212C868.533 430.463 868.821 430.753 869.003 431.084C869.189 431.415 869.283 431.796 869.283 432.228C869.283 432.996 869.003 433.599 868.443 434.036C867.888 434.473 867.123 434.692 866.147 434.692ZM873.499 434.692C872.849 434.692 872.361 434.513 872.035 434.156C871.71 433.799 871.547 433.265 871.547 432.556V428.076H870.355V426.324H871.547V423.9L873.531 422.948V426.324H875.387V428.076H873.531V432.196C873.531 432.452 873.582 432.641 873.683 432.764C873.79 432.887 873.955 432.948 874.179 432.948C874.574 432.948 875.006 432.825 875.475 432.58L875.243 434.324C874.998 434.447 874.731 434.537 874.443 434.596C874.155 434.66 873.841 434.692 873.499 434.692ZM876.678 430.724V428.812H880.822V430.724H876.678ZM882.3 434.5L886.564 423.3H888.532L892.812 434.5H890.58L889.692 432.132H885.412L884.54 434.5H882.3ZM886.084 430.236H889.004L887.884 427.236C887.847 427.145 887.807 427.044 887.764 426.932C887.722 426.82 887.682 426.708 887.644 426.596C887.607 426.479 887.575 426.377 887.548 426.292C887.522 426.377 887.49 426.479 887.452 426.596C887.415 426.708 887.375 426.82 887.332 426.932C887.29 427.044 887.25 427.145 887.212 427.236L886.084 430.236ZM894.537 437.748V426.324H896.537V426.924C896.985 426.396 897.585 426.132 898.337 426.132C899.036 426.132 899.638 426.305 900.145 426.652C900.652 426.993 901.041 427.484 901.313 428.124C901.585 428.764 901.721 429.527 901.721 430.412C901.721 431.271 901.58 432.023 901.297 432.668C901.014 433.308 900.617 433.807 900.105 434.164C899.593 434.516 898.996 434.692 898.313 434.692C897.94 434.692 897.604 434.625 897.305 434.492C897.006 434.353 896.75 434.151 896.537 433.884V436.844L894.537 437.748ZM898.017 432.78C898.561 432.78 898.98 432.575 899.273 432.164C899.566 431.748 899.713 431.164 899.713 430.412C899.713 429.66 899.564 429.076 899.265 428.66C898.966 428.244 898.55 428.036 898.017 428.036C897.692 428.036 897.406 428.095 897.161 428.212C896.921 428.329 896.713 428.508 896.537 428.748V432.052C896.681 432.281 896.884 432.46 897.145 432.588C897.412 432.716 897.702 432.78 898.017 432.78ZM903.803 434.5V426.324H905.803V434.5H903.803ZM904.803 425.3C904.483 425.3 904.206 425.185 903.971 424.956C903.742 424.721 903.627 424.444 903.627 424.124C903.627 423.804 903.742 423.532 903.971 423.308C904.2 423.079 904.478 422.964 904.803 422.964C905.139 422.964 905.419 423.076 905.643 423.3C905.867 423.524 905.979 423.799 905.979 424.124C905.979 424.449 905.864 424.727 905.635 424.956C905.411 425.185 905.134 425.3 904.803 425.3Z" fill="black"/>
<path d="M1065.38 347.75V398.375C1059.25 391.625 1055.5 382.75 1055.5 373C1055.5 363.25 1059.25 354.375 1065.38 347.75Z" fill="black"/>
<path d="M1069.38 353.25L1091 396.625H1069.38V353.25Z" fill="black"/>
<path d="M1093 391.75L1071.75 349.375H1114.25L1093 391.75Z" fill="black"/>
<path d="M1093 335.5C1102.75 335.5 1111.62 339.25 1118.25 345.375H1067.75C1074.38 339.25 1083.25 335.5 1093 335.5Z" fill="black"/>
<path d="M1116.63 396.625H1095L1116.63 353.25V396.625Z" fill="black"/>
<path d="M1118.25 400.625C1111.62 406.75 1102.75 410.5 1093 410.5C1083.25 410.5 1074.38 406.75 1067.75 400.625H1118.25Z" fill="black"/>
<path d="M1120.62 398.25V347.75C1126.75 354.375 1130.5 363.25 1130.5 373C1130.5 382.75 1126.75 391.625 1120.62 398.25Z" fill="black"/>
<path d="M1069.38 353.25L1091 396.625H1069.38V353.25Z" fill="black"/>
<path d="M1093 391.75L1071.75 349.375H1114.25L1093 391.75Z" fill="black"/>
<path d="M1095 396.625L1116.63 353.25V396.625H1095Z" fill="black"/>
<path d="M1071.75 349.375H1114.25L1093 391.75L1071.75 349.375Z" fill="black"/>
<path d="M1068.75 434.692L1065.88 428.452C1065.84 428.372 1065.8 428.279 1065.76 428.172C1065.72 428.065 1065.68 427.959 1065.65 427.852C1065.65 427.937 1065.66 428.039 1065.66 428.156C1065.66 428.273 1065.67 428.377 1065.67 428.468V434.5H1063.59V423.3H1065.67L1068.51 429.652C1068.56 429.769 1068.61 429.887 1068.65 430.004C1068.7 430.116 1068.74 430.233 1068.79 430.356C1068.83 430.233 1068.87 430.113 1068.91 429.996C1068.96 429.879 1069 429.764 1069.05 429.652L1071.95 423.3H1073.89V434.5H1071.82V428.452C1071.82 428.356 1071.82 428.249 1071.82 428.132C1071.82 428.015 1071.83 427.919 1071.83 427.844C1071.79 427.94 1071.75 428.044 1071.71 428.156C1071.66 428.263 1071.62 428.361 1071.58 428.452L1068.75 434.692ZM1078.9 434.692C1078.01 434.692 1077.3 434.452 1076.78 433.972C1076.26 433.487 1076 432.831 1076 432.004C1076 431.471 1076.14 431.004 1076.4 430.604C1076.67 430.199 1077.05 429.887 1077.53 429.668C1078.02 429.444 1078.58 429.332 1079.23 429.332C1079.58 429.332 1079.93 429.367 1080.26 429.436C1080.59 429.5 1080.89 429.593 1081.14 429.716V429.204C1081.14 428.745 1081.01 428.401 1080.75 428.172C1080.49 427.937 1080.11 427.82 1079.61 427.82C1079.21 427.82 1078.8 427.892 1078.38 428.036C1077.96 428.18 1077.53 428.393 1077.1 428.676L1076.5 427.1C1076.97 426.791 1077.49 426.553 1078.07 426.388C1078.64 426.217 1079.22 426.132 1079.81 426.132C1080.91 426.132 1081.73 426.393 1082.27 426.916C1082.82 427.433 1083.09 428.207 1083.09 429.236V434.5H1081.14V433.844C1080.86 434.121 1080.53 434.332 1080.15 434.476C1079.77 434.62 1079.35 434.692 1078.9 434.692ZM1079.36 433.004C1079.69 433.004 1080.01 432.94 1080.31 432.812C1080.62 432.679 1080.9 432.492 1081.14 432.252V431.284C1080.91 431.172 1080.65 431.087 1080.37 431.028C1080.09 430.964 1079.82 430.932 1079.54 430.932C1079.04 430.932 1078.65 431.028 1078.36 431.22C1078.08 431.407 1077.94 431.668 1077.94 432.004C1077.94 432.319 1078.06 432.564 1078.31 432.74C1078.57 432.916 1078.91 433.004 1079.36 433.004ZM1087.54 434.692C1086.89 434.692 1086.4 434.513 1086.07 434.156C1085.75 433.799 1085.59 433.265 1085.59 432.556V428.076H1084.39V426.324H1085.59V423.9L1087.57 422.948V426.324H1089.43V428.076H1087.57V432.196C1087.57 432.452 1087.62 432.641 1087.72 432.764C1087.83 432.887 1087.99 432.948 1088.22 432.948C1088.61 432.948 1089.04 432.825 1089.51 432.58L1089.28 434.324C1089.04 434.447 1088.77 434.537 1088.48 434.596C1088.19 434.66 1087.88 434.692 1087.54 434.692ZM1094.73 434.692C1093.94 434.692 1093.26 434.516 1092.69 434.164C1092.13 433.812 1091.69 433.316 1091.38 432.676C1091.08 432.031 1090.93 431.273 1090.93 430.404C1090.93 429.524 1091.08 428.764 1091.39 428.124C1091.7 427.484 1092.14 426.993 1092.71 426.652C1093.28 426.305 1093.95 426.132 1094.73 426.132C1095.39 426.132 1095.99 426.271 1096.53 426.548C1097.06 426.825 1097.49 427.252 1097.81 427.828C1098.13 428.399 1098.29 429.127 1098.29 430.012C1098.29 430.151 1098.29 430.321 1098.28 430.524C1098.27 430.721 1098.26 430.921 1098.24 431.124H1092.9C1092.92 431.497 1093.01 431.825 1093.16 432.108C1093.31 432.385 1093.52 432.601 1093.79 432.756C1094.06 432.911 1094.37 432.988 1094.73 432.988C1095.12 432.988 1095.46 432.924 1095.75 432.796C1096.04 432.663 1096.31 432.452 1096.57 432.164L1097.72 433.356C1097.37 433.756 1096.94 434.079 1096.45 434.324C1095.95 434.569 1095.38 434.692 1094.73 434.692ZM1092.91 429.564H1096.36C1096.33 429.207 1096.25 428.9 1096.12 428.644C1095.98 428.383 1095.8 428.183 1095.56 428.044C1095.32 427.905 1095.03 427.836 1094.69 427.836C1094.22 427.836 1093.82 427.98 1093.49 428.268C1093.15 428.556 1092.96 428.988 1092.91 429.564ZM1100.31 434.5V426.324H1102.31V427.204C1102.46 426.889 1102.69 426.633 1103.01 426.436C1103.33 426.233 1103.67 426.132 1104.02 426.132C1104.6 426.132 1105.09 426.332 1105.49 426.732L1105.21 428.564C1105 428.383 1104.78 428.255 1104.57 428.18C1104.37 428.105 1104.14 428.068 1103.89 428.068C1103.56 428.068 1103.27 428.145 1103.04 428.3C1102.8 428.455 1102.62 428.679 1102.49 428.972C1102.37 429.265 1102.31 429.617 1102.31 430.028V434.5H1100.31ZM1106.9 434.5V426.324H1108.9V434.5H1106.9ZM1107.9 425.3C1107.58 425.3 1107.31 425.185 1107.07 424.956C1106.84 424.721 1106.73 424.444 1106.73 424.124C1106.73 423.804 1106.84 423.532 1107.07 423.308C1107.3 423.079 1107.58 422.964 1107.9 422.964C1108.24 422.964 1108.52 423.076 1108.74 423.3C1108.97 423.524 1109.08 423.799 1109.08 424.124C1109.08 424.449 1108.97 424.727 1108.74 424.956C1108.51 425.185 1108.24 425.3 1107.9 425.3ZM1113.84 434.692C1112.95 434.692 1112.24 434.452 1111.72 433.972C1111.2 433.487 1110.94 432.831 1110.94 432.004C1110.94 431.471 1111.07 431.004 1111.34 430.604C1111.61 430.199 1111.99 429.887 1112.47 429.668C1112.95 429.444 1113.52 429.332 1114.16 429.332C1114.52 429.332 1114.87 429.367 1115.2 429.436C1115.53 429.5 1115.83 429.593 1116.08 429.716V429.204C1116.08 428.745 1115.95 428.401 1115.68 428.172C1115.43 427.937 1115.05 427.82 1114.55 427.82C1114.15 427.82 1113.74 427.892 1113.32 428.036C1112.89 428.18 1112.47 428.393 1112.04 428.676L1111.44 427.1C1111.91 426.791 1112.43 426.553 1113 426.388C1113.58 426.217 1114.16 426.132 1114.75 426.132C1115.85 426.132 1116.67 426.393 1117.21 426.916C1117.76 427.433 1118.03 428.207 1118.03 429.236V434.5H1116.08V433.844C1115.8 434.121 1115.47 434.332 1115.08 434.476C1114.71 434.62 1114.29 434.692 1113.84 434.692ZM1114.3 433.004C1114.63 433.004 1114.95 432.94 1115.25 432.812C1115.56 432.679 1115.84 432.492 1116.08 432.252V431.284C1115.85 431.172 1115.59 431.087 1115.31 431.028C1115.03 430.964 1114.75 430.932 1114.48 430.932C1113.98 430.932 1113.59 431.028 1113.3 431.22C1113.02 431.407 1112.88 431.668 1112.88 432.004C1112.88 432.319 1113 432.564 1113.25 432.74C1113.5 432.916 1113.85 433.004 1114.3 433.004ZM1120.41 434.5V423.852L1122.41 422.948V434.5H1120.41ZM1068.82 453.5V442.3H1072.6C1073.57 442.3 1074.39 442.46 1075.08 442.78C1075.76 443.095 1076.31 443.521 1076.73 444.06C1077.16 444.593 1077.47 445.193 1077.66 445.86C1077.86 446.521 1077.96 447.201 1077.96 447.9C1077.96 448.54 1077.86 449.188 1077.68 449.844C1077.49 450.5 1077.2 451.105 1076.78 451.66C1076.36 452.209 1075.81 452.655 1075.11 452.996C1074.41 453.332 1073.56 453.5 1072.53 453.5H1068.82ZM1070.89 451.532H1072.75C1073.32 451.532 1073.8 451.425 1074.19 451.212C1074.58 450.993 1074.89 450.708 1075.12 450.356C1075.36 449.999 1075.54 449.607 1075.64 449.18C1075.76 448.748 1075.81 448.321 1075.81 447.9C1075.81 447.452 1075.76 447.012 1075.64 446.58C1075.53 446.148 1075.36 445.756 1075.12 445.404C1074.89 445.052 1074.59 444.772 1074.23 444.564C1073.87 444.356 1073.43 444.252 1072.92 444.252H1070.89V451.532ZM1083.23 453.692C1082.45 453.692 1081.77 453.516 1081.2 453.164C1080.64 452.812 1080.2 452.316 1079.89 451.676C1079.59 451.031 1079.43 450.273 1079.43 449.404C1079.43 448.524 1079.59 447.764 1079.9 447.124C1080.21 446.484 1080.65 445.993 1081.22 445.652C1081.79 445.305 1082.46 445.132 1083.23 445.132C1083.89 445.132 1084.49 445.271 1085.03 445.548C1085.57 445.825 1086 446.252 1086.32 446.828C1086.64 447.399 1086.8 448.127 1086.8 449.012C1086.8 449.151 1086.8 449.321 1086.79 449.524C1086.78 449.721 1086.77 449.921 1086.75 450.124H1081.41C1081.43 450.497 1081.52 450.825 1081.67 451.108C1081.82 451.385 1082.03 451.601 1082.3 451.756C1082.56 451.911 1082.88 451.988 1083.24 451.988C1083.63 451.988 1083.97 451.924 1084.26 451.796C1084.55 451.663 1084.82 451.452 1085.07 451.164L1086.23 452.356C1085.87 452.756 1085.45 453.079 1084.95 453.324C1084.46 453.569 1083.88 453.692 1083.23 453.692ZM1081.42 448.564H1084.87C1084.84 448.207 1084.76 447.9 1084.63 447.644C1084.49 447.383 1084.31 447.183 1084.07 447.044C1083.83 446.905 1083.53 446.836 1083.19 446.836C1082.72 446.836 1082.32 446.98 1081.99 447.268C1081.66 447.556 1081.47 447.988 1081.42 448.564ZM1091.3 453.692C1090.66 453.692 1090.05 453.556 1089.46 453.284C1088.88 453.012 1088.42 452.647 1088.08 452.188L1089.39 451.084C1089.66 451.372 1089.98 451.601 1090.33 451.772C1090.69 451.937 1091.03 452.02 1091.36 452.02C1091.76 452.02 1092.08 451.953 1092.29 451.82C1092.51 451.681 1092.62 451.489 1092.62 451.244C1092.62 451.084 1092.57 450.943 1092.46 450.82C1092.36 450.692 1092.18 450.564 1091.92 450.436C1091.66 450.303 1091.29 450.151 1090.81 449.98C1089.9 449.644 1089.25 449.281 1088.86 448.892C1088.48 448.497 1088.29 447.999 1088.29 447.396C1088.29 446.724 1088.56 446.18 1089.1 445.764C1089.65 445.343 1090.36 445.132 1091.23 445.132C1091.83 445.132 1092.38 445.244 1092.88 445.468C1093.39 445.692 1093.82 446.02 1094.18 446.452L1092.88 447.532C1092.4 447.047 1091.84 446.804 1091.2 446.804C1090.87 446.804 1090.61 446.865 1090.41 446.988C1090.22 447.105 1090.12 447.265 1090.12 447.468C1090.12 447.665 1090.23 447.841 1090.46 447.996C1090.7 448.151 1091.13 448.332 1091.77 448.54C1092.4 448.737 1092.91 448.961 1093.29 449.212C1093.69 449.463 1093.98 449.753 1094.16 450.084C1094.35 450.415 1094.44 450.796 1094.44 451.228C1094.44 451.996 1094.16 452.599 1093.6 453.036C1093.04 453.473 1092.28 453.692 1091.3 453.692ZM1096.52 453.5V445.324H1098.52V453.5H1096.52ZM1097.52 444.3C1097.2 444.3 1096.92 444.185 1096.69 443.956C1096.46 443.721 1096.35 443.444 1096.35 443.124C1096.35 442.804 1096.46 442.532 1096.69 442.308C1096.92 442.079 1097.2 441.964 1097.52 441.964C1097.86 441.964 1098.14 442.076 1098.36 442.3C1098.59 442.524 1098.7 442.799 1098.7 443.124C1098.7 443.449 1098.58 443.727 1098.35 443.956C1098.13 444.185 1097.85 444.3 1097.52 444.3ZM1103.93 456.908L1102.82 455.236C1103.6 455.177 1104.2 455.089 1104.63 454.972C1105.06 454.855 1105.36 454.687 1105.53 454.468C1105.7 454.249 1105.79 453.964 1105.79 453.612V453.02C1105.37 453.468 1104.79 453.692 1104.03 453.692C1103.32 453.692 1102.71 453.521 1102.2 453.18C1101.69 452.833 1101.29 452.34 1101.01 451.7C1100.74 451.055 1100.61 450.289 1100.61 449.404C1100.61 448.54 1100.75 447.788 1101.03 447.148C1101.32 446.508 1101.72 446.012 1102.23 445.66C1102.75 445.308 1103.35 445.132 1104.05 445.132C1104.41 445.132 1104.74 445.188 1105.04 445.3C1105.34 445.412 1105.59 445.575 1105.79 445.788V445.324H1107.78V452.764C1107.78 453.489 1107.71 454.103 1107.58 454.604C1107.45 455.105 1107.23 455.516 1106.93 455.836C1106.63 456.156 1106.23 456.399 1105.74 456.564C1105.25 456.735 1104.65 456.849 1103.93 456.908ZM1104.36 451.78C1104.64 451.78 1104.9 451.716 1105.15 451.588C1105.4 451.455 1105.61 451.276 1105.79 451.052V447.756C1105.64 447.548 1105.43 447.377 1105.17 447.244C1104.91 447.105 1104.65 447.036 1104.38 447.036C1103.81 447.036 1103.37 447.239 1103.06 447.644C1102.76 448.044 1102.61 448.631 1102.61 449.404C1102.61 449.905 1102.68 450.335 1102.81 450.692C1102.95 451.044 1103.15 451.313 1103.41 451.5C1103.67 451.687 1103.99 451.78 1104.36 451.78ZM1110.29 453.5V445.324H1112.29V446.108C1112.55 445.783 1112.86 445.54 1113.22 445.38C1113.59 445.215 1114.01 445.132 1114.48 445.132C1115.39 445.132 1116.1 445.415 1116.59 445.98C1117.09 446.54 1117.34 447.348 1117.34 448.404V453.5H1115.34V449.02C1115.34 448.332 1115.22 447.831 1114.98 447.516C1114.75 447.196 1114.38 447.036 1113.88 447.036C1113.34 447.036 1112.93 447.196 1112.67 447.516C1112.42 447.831 1112.29 448.321 1112.29 448.988V453.5H1110.29Z" fill="black"/>
</svg>
