<svg width="16" height="20" viewBox="0 0 16 20" fill="none" xmlns="http://www.w3.org/2000/svg">
<g clip-path="url(#clip0_1247_1619)">
<path fill-rule="evenodd" clip-rule="evenodd" d="M2.09658 3.27567C1.84191 3.51387 1.8 3.68122 1.8 3.76938C1.8 3.85755 1.84191 4.02489 2.09658 4.26309C2.35256 4.50253 2.7664 4.75499 3.34455 4.98372C4.49618 5.43933 6.14181 5.73875 8 5.73875C9.85819 5.73875 11.5038 5.43933 12.6554 4.98372C13.2336 4.75499 13.6474 4.50253 13.9034 4.26309C14.1581 4.02489 14.2 3.85755 14.2 3.76938C14.2 3.68122 14.1581 3.51387 13.9034 3.27567C13.6474 3.03623 13.2336 2.78377 12.6554 2.55504C11.5038 2.09943 9.85819 1.80001 8 1.80001C6.14181 1.80001 4.49618 2.09943 3.34455 2.55504C2.7664 2.78377 2.35256 3.03623 2.09658 3.27567ZM2.75595 1.06724C4.13782 0.520539 5.99219 0.200012 8 0.200012C10.0078 0.200012 11.8622 0.520539 13.244 1.06724C13.9326 1.33967 14.5439 1.68396 14.9964 2.10717C15.4502 2.53161 15.8 3.09281 15.8 3.76938C15.8 4.44596 15.4502 5.00716 14.9964 5.4316C14.5439 5.85481 13.9326 6.1991 13.244 6.47152C11.8622 7.01822 10.0078 7.33875 8 7.33875C5.99219 7.33875 4.13782 7.01822 2.75595 6.47152C2.06735 6.1991 1.45606 5.85481 1.0036 5.4316C0.54983 5.00716 0.199997 4.44596 0.199997 3.76938C0.199997 3.09281 0.54983 2.53161 1.0036 2.10717C1.45606 1.68396 2.06735 1.33967 2.75595 1.06724Z" fill="#DB7533"/>
<path fill-rule="evenodd" clip-rule="evenodd" d="M0.999997 2.96954C1.44182 2.96954 1.8 3.32755 1.8 3.76938V7.9236C1.8 8.01182 1.84194 8.17918 2.09658 8.41738C2.35255 8.65681 2.76637 8.90926 3.34452 9.13799C4.49612 9.59358 6.14176 9.89297 8 9.89297C9.85824 9.89297 11.5039 9.59358 12.6555 9.13799C13.2336 8.90926 13.6474 8.65681 13.9034 8.41738C14.1581 8.17918 14.2 8.01182 14.2 7.9236V3.76938C14.2 3.32755 14.5582 2.96954 15 2.96954C15.4418 2.96954 15.8 3.32755 15.8 3.76938V7.9236C15.8 8.60018 15.4502 9.1614 14.9964 9.58586C14.544 10.0091 13.9327 10.3534 13.2441 10.6258C11.8622 11.1725 10.0078 11.493 8 11.493C5.99217 11.493 4.1378 11.1725 2.75592 10.6258C2.06733 10.3534 1.45604 10.0091 1.00358 9.58586C0.5498 9.1614 0.199997 8.60018 0.199997 7.9236V3.76938C0.199997 3.32755 0.558169 2.96954 0.999997 2.96954Z" fill="#DB7533"/>
<path fill-rule="evenodd" clip-rule="evenodd" d="M0.999997 7.1236C1.44182 7.1236 1.8 7.48177 1.8 7.9236V12.0777C1.8 12.1659 1.84194 12.3332 2.09658 12.5714C2.35255 12.8109 2.76637 13.0633 3.34452 13.292C4.49612 13.7476 6.14176 14.047 8 14.047C9.85824 14.047 11.5039 13.7476 12.6555 13.292C13.2336 13.0633 13.6474 12.8109 13.9034 12.5714C14.1581 12.3332 14.2 12.1659 14.2 12.0777V7.9236C14.2 7.48177 14.5582 7.1236 15 7.1236C15.4418 7.1236 15.8 7.48177 15.8 7.9236V12.0777C15.8 12.7542 15.4502 13.3154 14.9964 13.7399C14.544 14.1631 13.9327 14.5074 13.2441 14.7798C11.8622 15.3265 10.0078 15.647 8 15.647C5.99217 15.647 4.1378 15.3265 2.75592 14.7798C2.06733 14.5074 1.45604 14.1631 1.00358 13.7399C0.5498 13.3154 0.199997 12.7542 0.199997 12.0777V7.9236C0.199997 7.48177 0.558169 7.1236 0.999997 7.1236Z" fill="#DB7533"/>
<path fill-rule="evenodd" clip-rule="evenodd" d="M0.999997 11.2764C1.44182 11.2764 1.8 11.6346 1.8 12.0764V16.2305C1.8 16.3187 1.84194 16.4861 2.09658 16.7243C2.35255 16.9637 2.76637 17.2161 3.34452 17.4449C4.49612 17.9005 6.14176 18.1999 8 18.1999C9.85824 18.1999 11.5039 17.9005 12.6555 17.4449C13.2336 17.2161 13.6474 16.9637 13.9034 16.7243C14.1581 16.4861 14.2 16.3187 14.2 16.2305V12.0764C14.2 11.6346 14.5582 11.2764 15 11.2764C15.4418 11.2764 15.8 11.6346 15.8 12.0764V16.2305C15.8 16.9071 15.4502 17.4683 14.9964 17.8927C14.544 18.316 13.9327 18.6603 13.2441 18.9327C11.8622 19.4794 10.0078 19.7999 8 19.7999C5.99217 19.7999 4.1378 19.4794 2.75592 18.9327C2.06733 18.6603 1.45604 18.316 1.00358 17.8927C0.5498 17.4683 0.199997 16.9071 0.199997 16.2305V12.0764C0.199997 11.6346 0.558169 11.2764 0.999997 11.2764Z" fill="#DB7533"/>
</g>
<defs>
<clipPath id="clip0_1247_1619">
<rect width="16" height="20" fill="white"/>
</clipPath>
</defs>
</svg>
